<svg width="400" height="400" viewBox="0 0 400 400" fill="none" xmlns="http://www.w3.org/2000/svg">
<rect x="41" y="21" width="318" height="178" rx="5" fill="url(#paint0_linear_4_119)"/>
<rect x="41" y="21" width="318" height="178" rx="5" fill="url(#paint1_linear_4_119)" fill-opacity="0.2"/>
<rect x="114" y="42" width="172" height="129" rx="3" fill="#2E2D32"/>
<rect x="114" y="42" width="172" height="129" rx="3" fill="#2E2D32"/>
<rect x="121" y="49" width="158" height="116" rx="3" fill="#444444"/>
<circle cx="98.5" cy="36.5" r="3.5" fill="url(#paint2_radial_4_119)"/>
<circle cx="300.5" cy="36.5" r="3.5" fill="url(#paint3_radial_4_119)"/>
<circle cx="297" cy="140" r="1" fill="black"/>
<circle cx="303" cy="140" r="1" fill="black"/>
<circle cx="309" cy="140" r="1" fill="black"/>
<circle cx="315" cy="140" r="1" fill="black"/>
<circle cx="333" cy="140" r="1" fill="black"/>
<circle cx="321" cy="140" r="1" fill="black"/>
<circle cx="327" cy="140" r="1" fill="black"/>
<circle cx="297" cy="147" r="1" fill="black"/>
<circle cx="303" cy="147" r="1" fill="black"/>
<circle cx="309" cy="147" r="1" fill="black"/>
<circle cx="315" cy="147" r="1" fill="black"/>
<circle cx="333" cy="147" r="1" fill="black"/>
<circle cx="321" cy="147" r="1" fill="black"/>
<circle cx="327" cy="147" r="1" fill="black"/>
<circle cx="297" cy="154" r="1" fill="black"/>
<circle cx="303" cy="154" r="1" fill="black"/>
<circle cx="309" cy="154" r="1" fill="black"/>
<circle cx="315" cy="154" r="1" fill="black"/>
<circle cx="333" cy="154" r="1" fill="black"/>
<circle cx="321" cy="154" r="1" fill="black"/>
<circle cx="327" cy="154" r="1" fill="black"/>
<circle cx="297" cy="161" r="1" fill="black"/>
<circle cx="303" cy="161" r="1" fill="black"/>
<circle cx="309" cy="161" r="1" fill="black"/>
<circle cx="315" cy="161" r="1" fill="black"/>
<circle cx="333" cy="161" r="1" fill="black"/>
<circle cx="321" cy="161" r="1" fill="black"/>
<circle cx="327" cy="161" r="1" fill="black"/>
<circle cx="65" cy="140" r="1" fill="black"/>
<circle cx="71" cy="140" r="1" fill="black"/>
<circle cx="77" cy="140" r="1" fill="black"/>
<circle cx="83" cy="140" r="1" fill="black"/>
<circle cx="101" cy="140" r="1" fill="black"/>
<circle cx="89" cy="140" r="1" fill="black"/>
<circle cx="95" cy="140" r="1" fill="black"/>
<circle cx="65" cy="147" r="1" fill="black"/>
<circle cx="71" cy="147" r="1" fill="black"/>
<circle cx="77" cy="147" r="1" fill="black"/>
<circle cx="83" cy="147" r="1" fill="black"/>
<circle cx="101" cy="147" r="1" fill="black"/>
<circle cx="89" cy="147" r="1" fill="black"/>
<circle cx="95" cy="147" r="1" fill="black"/>
<circle cx="65" cy="154" r="1" fill="black"/>
<circle cx="71" cy="154" r="1" fill="black"/>
<circle cx="77" cy="154" r="1" fill="black"/>
<circle cx="83" cy="154" r="1" fill="black"/>
<circle cx="101" cy="154" r="1" fill="black"/>
<circle cx="89" cy="154" r="1" fill="black"/>
<circle cx="95" cy="154" r="1" fill="black"/>
<circle cx="65" cy="161" r="1" fill="black"/>
<circle cx="71" cy="161" r="1" fill="black"/>
<circle cx="77" cy="161" r="1" fill="black"/>
<circle cx="83" cy="161" r="1" fill="black"/>
<circle cx="101" cy="161" r="1" fill="black"/>
<circle cx="89" cy="161" r="1" fill="black"/>
<circle cx="95" cy="161" r="1" fill="black"/>
<rect x="41" y="201" width="318" height="178" rx="5" fill="#034FCD"/>
<rect x="117" y="217" width="165" height="116" rx="3" fill="#2E2D32"/>
<rect x="117" y="217" width="165" height="116" rx="3" fill="#2E2D32"/>
<path d="M293 227C293 221.477 297.477 217 303 217H359V356H303C297.477 356 293 351.523 293 346V227Z" fill="#0153DB"/>
<path d="M293 227C293 221.477 297.477 217 303 217H359V356H303C297.477 356 293 351.523 293 346V227Z" fill="url(#paint4_linear_4_119)"/>
<path d="M293 227C293 221.477 297.477 217 303 217H359V356H303C297.477 356 293 351.523 293 346V227Z" fill="url(#paint5_linear_4_119)" fill-opacity="0.2"/>
<path d="M309 230C309 228.343 310.343 227 312 227H328V234H312C310.343 234 309 232.657 309 231V230Z" fill="#2A312A"/>
<path d="M331 227H347C348.657 227 350 228.343 350 230V231C350 232.657 348.657 234 347 234H331V227Z" fill="#2A312A"/>
<circle cx="344.5" cy="277.5" r="7.5" fill="#9A9A9B"/>
<circle cx="329.5" cy="292.5" r="7.5" fill="#9A9A9B"/>
<circle cx="329.5" cy="260.5" r="7.5" fill="#2C2C2C"/>
<circle cx="314.5" cy="277.5" r="7.5" fill="#2C2C2C"/>
<path d="M41 217H97C102.523 217 107 221.477 107 227V346C107 351.523 102.523 356 97 356H41V217Z" fill="#0153DB"/>
<path d="M41 217H97C102.523 217 107 221.477 107 227V346C107 351.523 102.523 356 97 356H41V217Z" fill="url(#paint6_linear_4_119)"/>
<path d="M41 217H97C102.523 217 107 221.477 107 227V346C107 351.523 102.523 356 97 356H41V217Z" fill="url(#paint7_linear_4_119)" fill-opacity="0.2"/>
<rect x="62" y="229" width="24" height="8" rx="1" fill="#2A312A"/>
<path d="M64.4418 257C64.4418 256.448 64.8895 256 65.4418 256H78.5581C79.1103 256 79.5581 256.448 79.5581 257V273.442H64.4418V257Z" fill="#2C2C2C"/>
<path d="M48 288.558C47.4477 288.558 47 288.11 47 287.558V274.442C47 273.89 47.4477 273.442 48 273.442H64.4419V288.558H48Z" fill="#2C2C2C"/>
<path d="M96 273.442C96.5523 273.442 97 273.89 97 274.442V287.558C97 288.11 96.5523 288.558 96 288.558H79.5581V273.442H96Z" fill="#2C2C2C"/>
<path d="M79.5582 305C79.5582 305.552 79.1105 306 78.5582 306H65.4419C64.8897 306 64.4419 305.552 64.4419 305V292.558C64.4419 290.349 66.2328 288.558 68.4419 288.558H79.5582V305Z" fill="#2C2C2C"/>
<rect x="49.907" y="273.442" width="43.6046" height="15.1163" fill="#2C2C2C"/>
<rect x="64.4418" y="303.093" width="43.6046" height="15.1163" transform="rotate(-90 64.4418 303.093)" fill="#2C2C2C"/>
<path d="M120 371C120 370.448 120.448 370 121 370V370C121.552 370 122 370.448 122 371V379H120V371Z" fill="#2C2C2C" fill-opacity="0.76"/>
<path d="M269 371C269 370.448 269.448 370 270 370V370C270.552 370 271 370.448 271 371V379H269V371Z" fill="#2C2C2C" fill-opacity="0.76"/>
<path d="M273 371C273 370.448 273.448 370 274 370V370C274.552 370 275 370.448 275 371V379H273V371Z" fill="#2C2C2C" fill-opacity="0.76"/>
<path d="M215.222 346V337.16H218.212C219.269 337.16 220.075 337.455 220.63 338.044C221.185 338.633 221.462 339.5 221.462 340.644V342.503C221.462 343.656 221.185 344.527 220.63 345.116C220.075 345.705 219.269 346 218.212 346H215.222ZM218.147 338.655H216.782V344.505H218.147C218.762 344.505 219.2 344.353 219.46 344.05C219.729 343.747 219.863 343.231 219.863 342.503V340.644C219.863 339.925 219.729 339.413 219.46 339.11C219.2 338.807 218.762 338.655 218.147 338.655ZM227.256 346V345.129C226.857 345.476 226.484 345.731 226.138 345.896C225.791 346.052 225.44 346.13 225.085 346.13C224.495 346.13 224.04 345.931 223.72 345.532C223.399 345.125 223.239 344.557 223.239 343.829V339.409H224.734V343.647C224.734 344.375 225.002 344.739 225.54 344.739C225.756 344.739 225.99 344.687 226.242 344.583C226.502 344.479 226.814 344.28 227.178 343.985V339.409H228.673V346H227.256ZM235.736 345.623C235.285 345.805 234.861 345.935 234.462 346.013C234.063 346.091 233.686 346.13 233.331 346.13C232.352 346.13 231.611 345.853 231.108 345.298C230.605 344.743 230.354 344.007 230.354 343.088V342.308C230.354 341.693 230.467 341.16 230.692 340.709C230.917 340.258 231.238 339.907 231.654 339.656C232.07 339.405 232.56 339.279 233.123 339.279C233.582 339.279 234.011 339.374 234.41 339.565C234.817 339.747 235.147 340.037 235.398 340.436C235.658 340.826 235.788 341.329 235.788 341.944C235.788 342.126 235.775 342.321 235.749 342.529C235.723 342.728 235.68 342.941 235.619 343.166H231.797C231.814 343.703 231.949 344.106 232.2 344.375C232.451 344.644 232.854 344.778 233.409 344.778C233.704 344.778 234.007 344.743 234.319 344.674C234.64 344.605 234.969 344.501 235.307 344.362L235.736 345.623ZM233.123 340.54C232.724 340.54 232.412 340.67 232.187 340.93C231.97 341.181 231.845 341.545 231.81 342.022H234.306C234.315 341.979 234.319 341.94 234.319 341.905C234.319 341.862 234.319 341.823 234.319 341.788C234.319 341.372 234.202 341.06 233.968 340.852C233.734 340.644 233.452 340.54 233.123 340.54ZM237.471 344.141V336.38H238.966V344.141C238.966 344.271 238.997 344.397 239.057 344.518C239.127 344.631 239.257 344.687 239.447 344.687H239.655V346.065H239.291C238.797 346.065 238.42 345.97 238.16 345.779C237.9 345.588 237.718 345.346 237.614 345.051C237.519 344.756 237.471 344.453 237.471 344.141ZM245.825 344.687C246.83 344.687 247.333 344.314 247.333 343.569C247.333 343.266 247.255 343.027 247.099 342.854C246.951 342.681 246.674 342.529 246.267 342.399L245.201 342.048C243.927 341.632 243.29 340.796 243.29 339.539C243.29 338.811 243.515 338.213 243.966 337.745C244.425 337.268 245.14 337.03 246.111 337.03C246.518 337.03 246.921 337.078 247.32 337.173C247.718 337.26 248.143 337.403 248.594 337.602L248.113 338.941C247.697 338.776 247.341 338.659 247.047 338.59C246.761 338.512 246.466 338.473 246.163 338.473C245.764 338.473 245.448 338.547 245.214 338.694C244.988 338.833 244.876 339.088 244.876 339.461C244.876 339.738 244.954 339.968 245.11 340.15C245.274 340.323 245.543 340.471 245.916 340.592L246.982 340.943C247.623 341.16 248.104 341.476 248.425 341.892C248.754 342.299 248.919 342.841 248.919 343.517C248.919 344.297 248.672 344.93 248.178 345.415C247.684 345.892 246.908 346.13 245.851 346.13C245.435 346.13 245.001 346.082 244.551 345.987C244.109 345.883 243.623 345.71 243.095 345.467L243.576 344.128C244.061 344.336 244.473 344.483 244.811 344.57C245.157 344.648 245.495 344.687 245.825 344.687ZM251.578 342.321V343.088C251.578 343.643 251.678 344.059 251.877 344.336C252.077 344.613 252.397 344.752 252.839 344.752C253.056 344.752 253.299 344.726 253.567 344.674C253.845 344.613 254.144 344.522 254.464 344.401L254.893 345.662C254.503 345.818 254.135 345.935 253.788 346.013C253.442 346.091 253.099 346.13 252.761 346.13C251.895 346.13 251.232 345.853 250.772 345.298C250.313 344.743 250.083 344.007 250.083 343.088V342.321C250.083 341.394 250.313 340.657 250.772 340.111C251.232 339.556 251.895 339.279 252.761 339.279C253.091 339.279 253.424 339.318 253.762 339.396C254.1 339.474 254.456 339.587 254.828 339.734L254.399 341.021C253.775 340.778 253.255 340.657 252.839 340.657C252.397 340.657 252.077 340.796 251.877 341.073C251.678 341.342 251.578 341.758 251.578 342.321ZM259.979 340.774C259.572 340.774 259.182 340.839 258.809 340.969C258.445 341.09 258.094 341.29 257.756 341.567V346H256.261V339.409H257.678V340.423C258.12 340.007 258.515 339.712 258.861 339.539C259.208 339.366 259.581 339.279 259.979 339.279V340.774ZM266.294 345.623C265.843 345.805 265.418 345.935 265.02 346.013C264.621 346.091 264.244 346.13 263.889 346.13C262.909 346.13 262.168 345.853 261.666 345.298C261.163 344.743 260.912 344.007 260.912 343.088V342.308C260.912 341.693 261.024 341.16 261.25 340.709C261.475 340.258 261.796 339.907 262.212 339.656C262.628 339.405 263.117 339.279 263.681 339.279C264.14 339.279 264.569 339.374 264.968 339.565C265.375 339.747 265.704 340.037 265.956 340.436C266.216 340.826 266.346 341.329 266.346 341.944C266.346 342.126 266.333 342.321 266.307 342.529C266.281 342.728 266.237 342.941 266.177 343.166H262.355C262.372 343.703 262.506 344.106 262.758 344.375C263.009 344.644 263.412 344.778 263.967 344.778C264.261 344.778 264.565 344.743 264.877 344.674C265.197 344.605 265.527 344.501 265.865 344.362L266.294 345.623ZM263.681 340.54C263.282 340.54 262.97 340.67 262.745 340.93C262.528 341.181 262.402 341.545 262.368 342.022H264.864C264.872 341.979 264.877 341.94 264.877 341.905C264.877 341.862 264.877 341.823 264.877 341.788C264.877 341.372 264.76 341.06 264.526 340.852C264.292 340.644 264.01 340.54 263.681 340.54ZM273.073 345.623C272.622 345.805 272.198 345.935 271.799 346.013C271.4 346.091 271.023 346.13 270.668 346.13C269.689 346.13 268.948 345.853 268.445 345.298C267.942 344.743 267.691 344.007 267.691 343.088V342.308C267.691 341.693 267.804 341.16 268.029 340.709C268.254 340.258 268.575 339.907 268.991 339.656C269.407 339.405 269.897 339.279 270.46 339.279C270.919 339.279 271.348 339.374 271.747 339.565C272.154 339.747 272.484 340.037 272.735 340.436C272.995 340.826 273.125 341.329 273.125 341.944C273.125 342.126 273.112 342.321 273.086 342.529C273.06 342.728 273.017 342.941 272.956 343.166H269.134C269.151 343.703 269.286 344.106 269.537 344.375C269.788 344.644 270.191 344.778 270.746 344.778C271.041 344.778 271.344 344.743 271.656 344.674C271.977 344.605 272.306 344.501 272.644 344.362L273.073 345.623ZM270.46 340.54C270.061 340.54 269.749 340.67 269.524 340.93C269.307 341.181 269.182 341.545 269.147 342.022H271.643C271.652 341.979 271.656 341.94 271.656 341.905C271.656 341.862 271.656 341.823 271.656 341.788C271.656 341.372 271.539 341.06 271.305 340.852C271.071 340.644 270.789 340.54 270.46 340.54ZM278.071 340.67C277.855 340.67 277.608 340.722 277.33 340.826C277.053 340.93 276.724 341.134 276.342 341.437V346H274.847V339.409H276.264V340.293C276.672 339.938 277.057 339.682 277.421 339.526C277.785 339.361 278.154 339.279 278.526 339.279C279.159 339.279 279.64 339.483 279.969 339.89C280.299 340.289 280.463 340.852 280.463 341.58V346H278.968V341.762C278.968 341.034 278.669 340.67 278.071 340.67Z" fill="#ECECEC"/>
<rect x="288" y="190" width="37" height="17" fill="black"/>
<rect x="179" y="190" width="37" height="17" fill="black"/>
<rect x="63" y="190" width="135" height="17" fill="url(#paint8_linear_4_119)"/>
<rect x="315" y="190" width="22" height="17" fill="url(#paint9_linear_4_119)"/>
<g filter="url(#filter0_b_4_119)">
<path d="M200 190H313V207H200V190Z" fill="url(#paint10_linear_4_119)"/>
</g>
<defs>
<filter id="filter0_b_4_119" x="180" y="170" width="153" height="57" filterUnits="userSpaceOnUse" color-interpolation-filters="sRGB">
<feFlood flood-opacity="0" result="BackgroundImageFix"/>
<feGaussianBlur in="BackgroundImageFix" stdDeviation="10"/>
<feComposite in2="SourceAlpha" operator="in" result="effect1_backgroundBlur_4_119"/>
<feBlend mode="normal" in="SourceGraphic" in2="effect1_backgroundBlur_4_119" result="shape"/>
</filter>
<linearGradient id="paint0_linear_4_119" x1="200" y1="21" x2="200" y2="199" gradientUnits="userSpaceOnUse">
<stop stop-color="#012C75"/>
<stop offset="0.03" stop-color="#0153DB"/>
<stop offset="0.905" stop-color="#0153DB"/>
<stop offset="1" stop-color="#012C75"/>
</linearGradient>
<linearGradient id="paint1_linear_4_119" x1="359" y1="110" x2="41" y2="110" gradientUnits="userSpaceOnUse">
<stop stop-color="#012C75"/>
<stop offset="0.02" stop-color="#012158" stop-opacity="0"/>
<stop offset="0.975" stop-color="#01163B" stop-opacity="0"/>
<stop offset="1" stop-color="#012C75"/>
</linearGradient>
<radialGradient id="paint2_radial_4_119" cx="0" cy="0" r="1" gradientUnits="userSpaceOnUse" gradientTransform="translate(98.5 36.5) rotate(90) scale(3.5)">
<stop offset="0.325" stop-color="#D9D9D9" stop-opacity="0.39"/>
<stop offset="1" stop-color="white" stop-opacity="0.38"/>
</radialGradient>
<radialGradient id="paint3_radial_4_119" cx="0" cy="0" r="1" gradientUnits="userSpaceOnUse" gradientTransform="translate(300.5 36.5) rotate(90) scale(3.5)">
<stop offset="0.325" stop-color="#D9D9D9" stop-opacity="0.39"/>
<stop offset="1" stop-color="white" stop-opacity="0.38"/>
</radialGradient>
<linearGradient id="paint4_linear_4_119" x1="326" y1="217" x2="326" y2="356" gradientUnits="userSpaceOnUse">
<stop stop-color="#171717" stop-opacity="0.05"/>
<stop offset="0.045" stop-color="#0153DB"/>
<stop offset="0.95" stop-color="#0153DB"/>
<stop offset="1" stop-opacity="0.18"/>
</linearGradient>
<linearGradient id="paint5_linear_4_119" x1="293" y1="286.5" x2="359" y2="286.5" gradientUnits="userSpaceOnUse">
<stop offset="0.045"/>
<stop offset="0.135" stop-opacity="0"/>
</linearGradient>
<linearGradient id="paint6_linear_4_119" x1="74" y1="217" x2="74" y2="356" gradientUnits="userSpaceOnUse">
<stop stop-color="#171717" stop-opacity="0.05"/>
<stop offset="0.045" stop-color="#0153DB"/>
<stop offset="0.95" stop-color="#0153DB"/>
<stop offset="1" stop-opacity="0.18"/>
</linearGradient>
<linearGradient id="paint7_linear_4_119" x1="41" y1="286.5" x2="107" y2="286.5" gradientUnits="userSpaceOnUse">
<stop offset="0.86" stop-opacity="0"/>
<stop offset="0.95"/>
</linearGradient>
<linearGradient id="paint8_linear_4_119" x1="130.5" y1="190" x2="130.5" y2="207" gradientUnits="userSpaceOnUse">
<stop offset="0.015" stop-color="#003A9B"/>
<stop offset="0.375" stop-color="#0153DB"/>
<stop offset="0.525" stop-color="#5489E2"/>
<stop offset="0.765" stop-color="#0153DB"/>
<stop offset="0.855" stop-color="#0153DB"/>
<stop offset="1" stop-color="#003A9B"/>
</linearGradient>
<linearGradient id="paint9_linear_4_119" x1="326" y1="190" x2="326" y2="207" gradientUnits="userSpaceOnUse">
<stop offset="0.015" stop-color="#003A9B"/>
<stop offset="0.375" stop-color="#0153DB"/>
<stop offset="0.525" stop-color="#5489E2"/>
<stop offset="0.765" stop-color="#0153DB"/>
<stop offset="0.855" stop-color="#0153DB"/>
<stop offset="1" stop-color="#003A9B"/>
</linearGradient>
<linearGradient id="paint10_linear_4_119" x1="256.5" y1="190" x2="256.5" y2="207" gradientUnits="userSpaceOnUse">
<stop stop-color="#003A9B"/>
<stop offset="0.105" stop-color="#0153DB"/>
<stop offset="0.4" stop-color="#5489E2"/>
<stop offset="0.5" stop-color="#0153DB"/>
<stop offset="0.8" stop-color="#0153DB"/>
<stop offset="0.9" stop-color="#003A9B"/>
</linearGradient>
</defs>
</svg>
