<svg width="400" height="400" viewBox="0 0 400 400" fill="none" xmlns="http://www.w3.org/2000/svg">
<rect x="41" y="21" width="318" height="178" rx="5" fill="url(#paint0_linear_4_119)"/>
<rect x="41" y="21" width="318" height="178" rx="5" fill="url(#paint1_linear_4_119)" fill-opacity="0.2"/>
<rect x="114" y="42" width="172" height="129" rx="3" fill="#2E2D32"/>
<rect x="114" y="42" width="172" height="129" rx="3" fill="#2E2D32"/>
<rect x="121" y="49" width="158" height="116" rx="3" fill="#444444"/>
<circle cx="98.5" cy="36.5" r="3.5" fill="url(#paint2_radial_4_119)"/>
<circle cx="300.5" cy="36.5" r="3.5" fill="url(#paint3_radial_4_119)"/>
<circle cx="297" cy="140" r="1" fill="black"/>
<circle cx="303" cy="140" r="1" fill="black"/>
<circle cx="309" cy="140" r="1" fill="black"/>
<circle cx="315" cy="140" r="1" fill="black"/>
<circle cx="333" cy="140" r="1" fill="black"/>
<circle cx="321" cy="140" r="1" fill="black"/>
<circle cx="327" cy="140" r="1" fill="black"/>
<circle cx="297" cy="147" r="1" fill="black"/>
<circle cx="303" cy="147" r="1" fill="black"/>
<circle cx="309" cy="147" r="1" fill="black"/>
<circle cx="315" cy="147" r="1" fill="black"/>
<circle cx="333" cy="147" r="1" fill="black"/>
<circle cx="321" cy="147" r="1" fill="black"/>
<circle cx="327" cy="147" r="1" fill="black"/>
<circle cx="297" cy="154" r="1" fill="black"/>
<circle cx="303" cy="154" r="1" fill="black"/>
<circle cx="309" cy="154" r="1" fill="black"/>
<circle cx="315" cy="154" r="1" fill="black"/>
<circle cx="333" cy="154" r="1" fill="black"/>
<circle cx="321" cy="154" r="1" fill="black"/>
<circle cx="327" cy="154" r="1" fill="black"/>
<circle cx="297" cy="161" r="1" fill="black"/>
<circle cx="303" cy="161" r="1" fill="black"/>
<circle cx="309" cy="161" r="1" fill="black"/>
<circle cx="315" cy="161" r="1" fill="black"/>
<circle cx="333" cy="161" r="1" fill="black"/>
<circle cx="321" cy="161" r="1" fill="black"/>
<circle cx="327" cy="161" r="1" fill="black"/>
<circle cx="65" cy="140" r="1" fill="black"/>
<circle cx="71" cy="140" r="1" fill="black"/>
<circle cx="77" cy="140" r="1" fill="black"/>
<circle cx="83" cy="140" r="1" fill="black"/>
<circle cx="101" cy="140" r="1" fill="black"/>
<circle cx="89" cy="140" r="1" fill="black"/>
<circle cx="95" cy="140" r="1" fill="black"/>
<circle cx="65" cy="147" r="1" fill="black"/>
<circle cx="71" cy="147" r="1" fill="black"/>
<circle cx="77" cy="147" r="1" fill="black"/>
<circle cx="83" cy="147" r="1" fill="black"/>
<circle cx="101" cy="147" r="1" fill="black"/>
<circle cx="89" cy="147" r="1" fill="black"/>
<circle cx="95" cy="147" r="1" fill="black"/>
<circle cx="65" cy="154" r="1" fill="black"/>
<circle cx="71" cy="154" r="1" fill="black"/>
<circle cx="77" cy="154" r="1" fill="black"/>
<circle cx="83" cy="154" r="1" fill="black"/>
<circle cx="101" cy="154" r="1" fill="black"/>
<circle cx="89" cy="154" r="1" fill="black"/>
<circle cx="95" cy="154" r="1" fill="black"/>
<circle cx="65" cy="161" r="1" fill="black"/>
<circle cx="71" cy="161" r="1" fill="black"/>
<circle cx="77" cy="161" r="1" fill="black"/>
<circle cx="83" cy="161" r="1" fill="black"/>
<circle cx="101" cy="161" r="1" fill="black"/>
<circle cx="89" cy="161" r="1" fill="black"/>
<circle cx="95" cy="161" r="1" fill="black"/>
<rect x="41" y="201" width="318" height="178" rx="5" fill="#034FCD"/>
<rect x="117" y="217" width="165" height="116" rx="3" fill="#2E2D32"/>
<rect x="117" y="217" width="165" height="116" rx="3" fill="#2E2D32"/>
<path d="M293 227C293 221.477 297.477 217 303 217H359V356H303C297.477 356 293 351.523 293 346V227Z" fill="#0153DB"/>
<path d="M293 227C293 221.477 297.477 217 303 217H359V356H303C297.477 356 293 351.523 293 346V227Z" fill="url(#paint4_linear_4_119)"/>
<path d="M293 227C293 221.477 297.477 217 303 217H359V356H303C297.477 356 293 351.523 293 346V227Z" fill="url(#paint5_linear_4_119)" fill-opacity="0.2"/>
<path d="M309 230C309 228.343 310.343 227 312 227H328V234H312C310.343 234 309 232.657 309 231V230Z" fill="#2A312A"/>
<path d="M331 227H347C348.657 227 350 228.343 350 230V231C350 232.657 348.657 234 347 234H331V227Z" fill="#2A312A"/>
<circle cx="344.5" cy="277.5" r="7.5" fill="#9A9A9B"/>
<circle cx="329.5" cy="292.5" r="7.5" fill="#9A9A9B"/>
<circle cx="329.5" cy="260.5" r="7.5" fill="#2C2C2C"/>
<circle cx="314.5" cy="277.5" r="7.5" fill="#2C2C2C"/>
<path d="M41 217H97C102.523 217 107 221.477 107 227V346C107 351.523 102.523 356 97 356H41V217Z" fill="#0153DB"/>
<path d="M41 217H97C102.523 217 107 221.477 107 227V346C107 351.523 102.523 356 97 356H41V217Z" fill="url(#paint6_linear_4_119)"/>
<path d="M41 217H97C102.523 217 107 221.477 107 227V346C107 351.523 102.523 356 97 356H41V217Z" fill="url(#paint7_linear_4_119)" fill-opacity="0.2"/>
<rect x="60" y="230" width="24" height="8" rx="1" fill="#2A312A"/>
<path d="M64.4418 257C64.4418 256.448 64.8895 256 65.4418 256H78.5581C79.1103 256 79.5581 256.448 79.5581 257V273.442H64.4418V257Z" fill="#2C2C2C"/>
<path d="M48 288.558C47.4477 288.558 47 288.11 47 287.558V274.442C47 273.89 47.4477 273.442 48 273.442H64.4419V288.558H48Z" fill="#2C2C2C"/>
<path d="M96 273.442C96.5523 273.442 97 273.89 97 274.442V287.558C97 288.11 96.5523 288.558 96 288.558H79.5581V273.442H96Z" fill="#2C2C2C"/>
<path d="M79.5582 305C79.5582 305.552 79.1105 306 78.5582 306H65.4419C64.8897 306 64.4419 305.552 64.4419 305V292.558C64.4419 290.349 66.2328 288.558 68.4419 288.558H79.5582V305Z" fill="#2C2C2C"/>
<rect x="49.907" y="273.442" width="43.6046" height="15.1163" fill="#2C2C2C"/>
<rect x="64.4418" y="303.093" width="43.6046" height="15.1163" transform="rotate(-90 64.4418 303.093)" fill="#2C2C2C"/>
<path d="M120 371C120 370.448 120.448 370 121 370C121.552 370 122 370.448 122 371V379H120V371Z" fill="#2C2C2C" fill-opacity="0.76"/>
<path d="M269 371C269 370.448 269.448 370 270 370C270.552 370 271 370.448 271 371V379H269V371Z" fill="#2C2C2C" fill-opacity="0.76"/>
<path d="M273 371C273 370.448 273.448 370 274 370C274.552 370 275 370.448 275 371V379H273V371Z" fill="#2C2C2C" fill-opacity="0.76"/>
<path d="M268.222 346V337.16H271.212C272.269 337.16 273.075 337.455 273.63 338.044C274.185 338.633 274.462 339.5 274.462 340.644V342.503C274.462 343.656 274.185 344.527 273.63 345.116C273.075 345.705 272.269 346 271.212 346H268.222ZM271.147 338.655H269.782V344.505H271.147C271.762 344.505 272.2 344.353 272.46 344.05C272.729 343.747 272.863 343.231 272.863 342.503V340.644C272.863 339.925 272.729 339.413 272.46 339.11C272.2 338.807 271.762 338.655 271.147 338.655ZM278.449 344.687C279.454 344.687 279.957 344.314 279.957 343.569C279.957 343.266 279.879 343.027 279.723 342.854C279.575 342.681 279.298 342.529 278.891 342.399L277.825 342.048C276.551 341.632 275.914 340.796 275.914 339.539C275.914 338.811 276.139 338.213 276.59 337.745C277.049 337.268 277.764 337.03 278.735 337.03C279.142 337.03 279.545 337.078 279.944 337.173C280.342 337.26 280.767 337.403 281.218 337.602L280.737 338.941C280.321 338.776 279.965 338.659 279.671 338.59C279.385 338.512 279.09 338.473 278.787 338.473C278.388 338.473 278.072 338.547 277.838 338.694C277.612 338.833 277.5 339.088 277.5 339.461C277.5 339.738 277.578 339.968 277.734 340.15C277.898 340.323 278.167 340.471 278.54 340.592L279.606 340.943C280.247 341.16 280.728 341.476 281.049 341.892C281.378 342.299 281.543 342.841 281.543 343.517C281.543 344.297 281.296 344.93 280.802 345.415C280.308 345.892 279.532 346.13 278.475 346.13C278.059 346.13 277.625 346.082 277.175 345.987C276.733 345.883 276.247 345.71 275.719 345.467L276.2 344.128C276.685 344.336 277.097 344.483 277.435 344.57C277.781 344.648 278.119 344.687 278.449 344.687Z" fill="#ECECEC"/>
<rect x="288" y="190" width="37" height="17" fill="black"/>
<rect x="179" y="190" width="37" height="17" fill="black"/>
<rect x="63" y="190" width="135" height="17" fill="url(#paint8_linear_4_119)"/>
<rect x="315" y="190" width="22" height="17" fill="url(#paint9_linear_4_119)"/>
<g filter="url(#filter0_b_4_119)">
<path d="M200 190H313V207H200V190Z" fill="url(#paint10_linear_4_119)"/>
</g>
<defs>
<filter id="filter0_b_4_119" x="180" y="170" width="153" height="57" filterUnits="userSpaceOnUse" color-interpolation-filters="sRGB">
<feFlood flood-opacity="0" result="BackgroundImageFix"/>
<feGaussianBlur in="BackgroundImageFix" stdDeviation="10"/>
<feComposite in2="SourceAlpha" operator="in" result="effect1_backgroundBlur_4_119"/>
<feBlend mode="normal" in="SourceGraphic" in2="effect1_backgroundBlur_4_119" result="shape"/>
</filter>
<linearGradient id="paint0_linear_4_119" x1="200" y1="21" x2="200" y2="199" gradientUnits="userSpaceOnUse">
<stop stop-color="#012C75"/>
<stop offset="0.03" stop-color="#0153DB"/>
<stop offset="0.905" stop-color="#0153DB"/>
<stop offset="1" stop-color="#012C75"/>
</linearGradient>
<linearGradient id="paint1_linear_4_119" x1="359" y1="110" x2="41" y2="110" gradientUnits="userSpaceOnUse">
<stop stop-color="#012C75"/>
<stop offset="0.02" stop-color="#012158" stop-opacity="0"/>
<stop offset="0.975" stop-color="#01163B" stop-opacity="0"/>
<stop offset="1" stop-color="#012C75"/>
</linearGradient>
<radialGradient id="paint2_radial_4_119" cx="0" cy="0" r="1" gradientUnits="userSpaceOnUse" gradientTransform="translate(98.5 36.5) rotate(90) scale(3.5)">
<stop offset="0.325" stop-color="#D9D9D9" stop-opacity="0.39"/>
<stop offset="1" stop-color="white" stop-opacity="0.38"/>
</radialGradient>
<radialGradient id="paint3_radial_4_119" cx="0" cy="0" r="1" gradientUnits="userSpaceOnUse" gradientTransform="translate(300.5 36.5) rotate(90) scale(3.5)">
<stop offset="0.325" stop-color="#D9D9D9" stop-opacity="0.39"/>
<stop offset="1" stop-color="white" stop-opacity="0.38"/>
</radialGradient>
<linearGradient id="paint4_linear_4_119" x1="326" y1="217" x2="326" y2="356" gradientUnits="userSpaceOnUse">
<stop stop-color="#171717" stop-opacity="0.05"/>
<stop offset="0.045" stop-color="#0153DB"/>
<stop offset="0.95" stop-color="#0153DB"/>
<stop offset="1" stop-opacity="0.18"/>
</linearGradient>
<linearGradient id="paint5_linear_4_119" x1="293" y1="286.5" x2="359" y2="286.5" gradientUnits="userSpaceOnUse">
<stop offset="0.045"/>
<stop offset="0.135" stop-opacity="0"/>
</linearGradient>
<linearGradient id="paint6_linear_4_119" x1="74" y1="217" x2="74" y2="356" gradientUnits="userSpaceOnUse">
<stop stop-color="#171717" stop-opacity="0.05"/>
<stop offset="0.045" stop-color="#0153DB"/>
<stop offset="0.95" stop-color="#0153DB"/>
<stop offset="1" stop-opacity="0.18"/>
</linearGradient>
<linearGradient id="paint7_linear_4_119" x1="41" y1="286.5" x2="107" y2="286.5" gradientUnits="userSpaceOnUse">
<stop offset="0.86" stop-opacity="0"/>
<stop offset="0.95"/>
</linearGradient>
<linearGradient id="paint8_linear_4_119" x1="130.5" y1="190" x2="130.5" y2="207" gradientUnits="userSpaceOnUse">
<stop offset="0.015" stop-color="#003A9B"/>
<stop offset="0.375" stop-color="#0153DB"/>
<stop offset="0.525" stop-color="#5489E2"/>
<stop offset="0.765" stop-color="#0153DB"/>
<stop offset="0.855" stop-color="#0153DB"/>
<stop offset="1" stop-color="#003A9B"/>
</linearGradient>
<linearGradient id="paint9_linear_4_119" x1="326" y1="190" x2="326" y2="207" gradientUnits="userSpaceOnUse">
<stop offset="0.015" stop-color="#003A9B"/>
<stop offset="0.375" stop-color="#0153DB"/>
<stop offset="0.525" stop-color="#5489E2"/>
<stop offset="0.765" stop-color="#0153DB"/>
<stop offset="0.855" stop-color="#0153DB"/>
<stop offset="1" stop-color="#003A9B"/>
</linearGradient>
<linearGradient id="paint10_linear_4_119" x1="256.5" y1="190" x2="256.5" y2="207" gradientUnits="userSpaceOnUse">
<stop stop-color="#003A9B"/>
<stop offset="0.105" stop-color="#0153DB"/>
<stop offset="0.4" stop-color="#5489E2"/>
<stop offset="0.5" stop-color="#0153DB"/>
<stop offset="0.8" stop-color="#0153DB"/>
<stop offset="0.9" stop-color="#003A9B"/>
</linearGradient>
</defs>
</svg>
