<svg width="400" height="400" viewBox="0 0 400 400" fill="none" xmlns="http://www.w3.org/2000/svg">
<path d="M66 15C66 12.2386 68.2386 10 71 10H329C331.761 10 334 12.2386 334 15V339C334 366.614 311.614 389 284 389H71C68.2386 389 66 386.761 66 384V15Z" fill="#BEC1BA"/>
<g filter="url(#filter0_d_4_120)">
<circle cx="256.714" cy="286.443" r="17.5" transform="rotate(-5.76283 256.714 286.443)" fill="#B6005E"/>
</g>
<g filter="url(#filter1_d_4_120)">
<circle cx="304.389" cy="266.169" r="17.5" transform="rotate(-5.76283 304.389 266.169)" fill="#B6005E"/>
</g>
<path d="M266.148 319.536C265.964 319.6 265.836 319.531 265.766 319.328L263.225 311.998C263.155 311.795 263.212 311.661 263.396 311.597L265.555 310.849C266.81 310.414 267.726 310.324 268.302 310.579C268.878 310.834 269.266 311.247 269.464 311.819C269.621 312.273 269.574 312.722 269.323 313.165C269.07 313.604 268.783 313.91 268.463 314.083L268.468 314.099C268.853 314.003 269.332 314.046 269.908 314.227C270.486 314.403 270.875 314.78 271.076 315.36C271.293 315.987 271.242 316.592 270.923 317.174C270.608 317.755 269.828 318.26 268.584 318.692L266.148 319.536ZM266.62 318.356L268.092 317.845C268.886 317.57 269.433 317.271 269.735 316.947C270.036 316.624 270.101 316.215 269.929 315.72C269.771 315.262 269.46 314.973 268.996 314.853C268.536 314.731 267.915 314.806 267.133 315.077L265.66 315.588L266.62 318.356ZM265.384 314.79L266.773 314.309C267.39 314.095 267.846 313.79 268.143 313.394C268.442 312.992 268.523 312.592 268.384 312.194C268.253 311.813 268.006 311.574 267.646 311.476C267.285 311.378 266.699 311.469 265.887 311.751L264.497 312.233L265.384 314.79Z" fill="#5B3D87"/>
<path d="M313.473 298.77C313.281 298.837 313.189 298.732 313.197 298.457L313.446 290.265C313.452 290.011 313.535 289.856 313.694 289.801L314.469 289.532C314.628 289.477 314.788 289.548 314.951 289.743L320.217 296.023C320.393 296.235 320.386 296.374 320.194 296.44L319.629 296.636C319.434 296.704 319.269 296.66 319.137 296.503L317.809 294.911L314.399 296.093L314.342 298.165C314.335 298.37 314.233 298.507 314.038 298.575L313.473 298.77ZM314.433 295.064L317.146 294.124L315.531 292.203C315.382 292.023 315.225 291.821 315.061 291.597C314.9 291.371 314.688 291.046 314.424 290.62L314.402 290.628C314.459 291.125 314.492 291.513 314.501 291.791C314.515 292.067 314.518 292.322 314.512 292.556L314.433 295.064Z" fill="#5B3D87"/>
<path d="M111.672 247C111.672 246.448 112.12 246 112.672 246H132.328C132.88 246 133.328 246.448 133.328 247V274.594H111.672V247Z" fill="#2C2C2C"/>
<path d="M92 286.984C91.4477 286.984 91 286.537 91 285.984V267.016C91 266.463 91.4477 266.016 92 266.016H118.562V286.984H92Z" fill="#2C2C2C"/>
<path d="M153 266.016C153.552 266.016 154 266.463 154 267.016V285.984C154 286.537 153.552 286.984 153 286.984H128.406V266.016H153Z" fill="#2C2C2C"/>
<path d="M133.328 306C133.328 306.552 132.88 307 132.328 307H112.672C112.12 307 111.672 306.552 111.672 306V280.312H133.328V306Z" fill="#2C2C2C"/>
<rect x="92.0531" y="266.415" width="60.0927" height="20.1708" fill="#2C2C2C"/>
<rect x="112.084" y="305.98" width="58.185" height="20.8321" transform="rotate(-90 112.084 305.98)" fill="#2C2C2C"/>
<path d="M113.572 248.906C113.572 248.354 114.02 247.906 114.572 247.906H130.428C130.98 247.906 131.428 248.354 131.428 248.906V267.855H113.572V248.906Z" fill="#323232"/>
<path d="M93.9687 285.145C93.4165 285.145 92.9688 284.697 92.9688 284.145V268.855C92.9688 268.303 93.4165 267.855 93.9688 267.855H113.572V285.145H93.9687Z" fill="#323232"/>
<path d="M151.031 267.855C151.584 267.855 152.031 268.303 152.031 268.855V284.145C152.031 284.697 151.584 285.145 151.031 285.145H131.428V267.855H151.031Z" fill="#323232"/>
<path d="M131.428 304.094C131.428 304.646 130.98 305.094 130.428 305.094H114.572C114.02 305.094 113.572 304.646 113.572 304.094V289.145C113.572 286.935 115.363 285.145 117.572 285.145H131.428V304.094Z" fill="#323232"/>
<rect x="96.4027" y="267.855" width="51.508" height="17.2892" fill="#323232"/>
<rect x="113.572" y="301.769" width="49.8728" height="17.8561" transform="rotate(-90 113.572 301.769)" fill="#323232"/>
<g filter="url(#filter2_i_4_120)">
<circle cx="122.5" cy="276.5" r="8.5" fill="#323232"/>
</g>
<path d="M91 42C91 39.2386 93.2386 37 96 37H304C306.761 37 309 39.2386 309 42V180C309 202.091 291.091 220 269 220H96C93.2386 220 91 217.761 91 215V42Z" fill="#90848C"/>
<g filter="url(#filter3_i_4_120)">
<rect x="125" y="54" width="150" height="150" fill="#74AA56"/>
</g>
<g filter="url(#filter4_i_4_120)">
<circle cx="108.5" cy="102.5" r="3.5" fill="#454545"/>
</g>
<line x1="308.5" y1="26" x2="308.5" y2="10" stroke="black" stroke-opacity="0.2"/>
<line x1="66" y1="26.5" x2="334" y2="26.5" stroke="black" stroke-opacity="0.2"/>
<line x1="91.5" y1="26" x2="91.5" y2="10" stroke="black" stroke-opacity="0.2"/>
<g filter="url(#filter5_i_4_120)">
<rect x="96" y="14" width="33" height="8" rx="4" fill="#BEC1BA"/>
</g>
<g filter="url(#filter6_i_4_120)">
<rect x="166" y="373" width="43" height="11" rx="5.5" fill="#BEC1BA"/>
</g>
<g filter="url(#filter7_i_4_120)">
<path d="M300.079 331.065C299.497 330.101 299.879 328.943 300.92 328.532V328.532C301.897 328.147 303.092 328.567 303.62 329.48C309.621 339.866 313.79 347.365 320.25 360.607C320.702 361.532 320.298 362.567 319.336 362.946V362.946C318.288 363.36 317.01 362.831 316.561 361.809C311.243 349.715 307.016 342.529 300.079 331.065Z" fill="#454545"/>
</g>
<g filter="url(#filter8_i_4_120)">
<path d="M286.47 334.988C285.887 334.024 286.269 332.866 287.31 332.455V332.455C288.287 332.07 289.483 332.49 290.01 333.403C296.011 343.789 300.18 351.288 306.641 364.53C307.092 365.455 306.688 366.49 305.726 366.87V366.87C304.679 367.283 303.4 366.754 302.951 365.732C297.633 353.638 293.406 346.452 286.47 334.988Z" fill="#454545"/>
</g>
<g filter="url(#filter9_i_4_120)">
<path d="M272.863 338.831C272.28 337.868 272.662 336.709 273.703 336.298V336.298C274.68 335.913 275.875 336.333 276.403 337.246C282.404 347.632 286.573 355.131 293.033 368.373C293.485 369.298 293.081 370.333 292.119 370.713V370.713C291.072 371.126 289.793 370.597 289.344 369.575C284.026 357.481 279.799 350.295 272.863 338.831Z" fill="#454545"/>
</g>
<g filter="url(#filter10_i_4_120)">
<path d="M259.255 342.674C258.673 341.71 259.055 340.552 260.096 340.141V340.141C261.073 339.756 262.268 340.176 262.796 341.089C268.797 351.475 272.966 358.974 279.426 372.216C279.878 373.141 279.474 374.176 278.512 374.556V374.556C277.464 374.969 276.186 374.44 275.737 373.418C270.419 361.324 266.192 354.138 259.255 342.674Z" fill="#454545"/>
</g>
<g filter="url(#filter11_i_4_120)">
<path d="M245.646 346.597C245.063 345.634 245.445 344.475 246.486 344.064V344.064C247.464 343.679 248.659 344.099 249.186 345.012C255.188 355.398 259.356 362.897 265.817 376.139C266.268 377.064 265.864 378.099 264.903 378.479V378.479C263.855 378.892 262.576 378.363 262.127 377.341C256.809 365.247 252.582 358.061 245.646 346.597Z" fill="#454545"/>
</g>
<g filter="url(#filter12_i_4_120)">
<path d="M232.039 350.44C231.456 349.476 231.838 348.318 232.879 347.907V347.907C233.856 347.522 235.052 347.942 235.579 348.855C241.58 359.241 245.749 366.74 252.21 379.982C252.661 380.907 252.257 381.942 251.295 382.321V382.321C250.248 382.735 248.969 382.206 248.52 381.184C243.202 369.09 238.975 361.904 232.039 350.44Z" fill="#454545"/>
</g>
<g filter="url(#filter13_d_4_120)">
<rect x="154" y="337.714" width="27.4289" height="6" rx="3" transform="rotate(-30 154 337.714)" fill="#90848C"/>
</g>
<g filter="url(#filter14_d_4_120)">
<rect x="190" y="337.714" width="27.4289" height="6" rx="3" transform="rotate(-30 190 337.714)" fill="#90848C"/>
</g>
<path d="M165.171 349.967C165.037 349.936 164.975 349.87 164.985 349.77L165.022 349.394C165.036 349.274 165.13 349.225 165.305 349.249C165.544 349.28 165.788 349.275 166.035 349.235C166.284 349.193 166.541 349.096 166.803 348.945C166.958 348.856 167.086 348.758 167.186 348.652C167.285 348.543 167.349 348.41 167.38 348.253C167.413 348.096 167.379 347.929 167.279 347.754C167.22 347.652 167.142 347.569 167.045 347.505C166.951 347.439 166.842 347.406 166.718 347.406C166.595 347.401 166.481 347.409 166.376 347.428C166.201 347.457 166.032 347.496 165.869 347.545C165.707 347.589 165.489 347.641 165.215 347.701C165.032 347.742 164.847 347.759 164.658 347.751C164.468 347.74 164.277 347.688 164.085 347.596C163.895 347.502 163.724 347.321 163.57 347.053C163.412 346.779 163.36 346.495 163.413 346.202C163.466 345.909 163.598 345.655 163.809 345.44C164.018 345.222 164.241 345.045 164.478 344.909C164.828 344.708 165.132 344.587 165.391 344.547C165.651 344.503 165.89 344.492 166.109 344.512C166.236 344.525 166.292 344.593 166.276 344.715L166.231 345.078C166.219 345.194 166.125 345.244 165.951 345.228C165.804 345.215 165.616 345.231 165.387 345.276C165.158 345.321 164.971 345.385 164.828 345.468C164.65 345.57 164.509 345.678 164.404 345.79C164.3 345.903 164.236 346.03 164.212 346.171C164.188 346.312 164.214 346.448 164.288 346.578C164.345 346.677 164.412 346.757 164.488 346.818C164.563 346.876 164.661 346.913 164.783 346.93C164.905 346.946 165.054 346.93 165.229 346.882C165.502 346.808 165.75 346.74 165.974 346.679C166.201 346.616 166.414 346.576 166.614 346.559C166.876 346.536 167.094 346.551 167.271 346.604C167.45 346.655 167.6 346.736 167.72 346.847C167.839 346.955 167.945 347.091 168.039 347.255C168.213 347.557 168.269 347.864 168.209 348.177C168.151 348.488 168.032 348.742 167.853 348.939C167.671 349.133 167.425 349.32 167.115 349.498C166.694 349.74 166.299 349.888 165.929 349.943C165.56 349.994 165.308 350.002 165.171 349.967ZM167.628 346.151C167.226 345.451 167.08 344.793 167.192 344.177C167.304 343.561 167.685 343.066 168.337 342.691C168.879 342.38 169.437 342.312 170.012 342.489C170.588 342.661 171.115 343.164 171.593 343.996C171.666 344.123 171.645 344.22 171.529 344.287L168.578 345.982C168.939 346.499 169.304 346.795 169.673 346.868C170.04 346.939 170.379 346.885 170.69 346.706C171.017 346.518 171.237 346.319 171.348 346.108C171.46 345.898 171.526 345.715 171.546 345.561C171.568 345.39 171.643 345.318 171.77 345.342L172.144 345.415C172.241 345.434 172.286 345.511 172.277 345.647C172.271 345.76 172.192 345.98 172.042 346.306C171.895 346.631 171.55 346.95 171.008 347.261C170.303 347.666 169.663 347.758 169.088 347.536C168.517 347.313 168.03 346.851 167.628 346.151ZM168.245 345.442L170.637 344.067C170.399 343.678 170.099 343.391 169.736 343.205C169.373 343.016 169.004 343.029 168.632 343.243C168.304 343.431 168.09 343.701 167.987 344.052C167.884 344.401 167.97 344.864 168.245 345.442ZM173.552 345.704C173.425 345.777 173.325 345.75 173.252 345.622L170.216 340.339C170.183 340.282 170.167 340.221 170.166 340.154L170.153 339.446C170.15 339.316 170.165 339.242 170.199 339.222L170.347 339.137C170.432 339.088 170.503 339.113 170.56 339.212L173.997 345.194C174.07 345.321 174.043 345.421 173.916 345.494L173.552 345.704ZM173.357 342.859C172.955 342.159 172.809 341.501 172.921 340.885C173.033 340.269 173.414 339.774 174.066 339.399C174.608 339.088 175.166 339.02 175.741 339.197C176.317 339.369 176.844 339.872 177.322 340.704C177.395 340.831 177.374 340.928 177.258 340.995L174.307 342.69C174.668 343.207 175.033 343.503 175.402 343.576C175.769 343.647 176.108 343.593 176.419 343.414C176.746 343.226 176.966 343.027 177.077 342.816C177.189 342.606 177.255 342.423 177.275 342.269C177.297 342.098 177.372 342.026 177.499 342.05L177.873 342.123C177.97 342.142 178.015 342.219 178.006 342.356C178 342.468 177.921 342.688 177.771 343.014C177.624 343.339 177.279 343.658 176.737 343.969C176.032 344.374 175.392 344.466 174.817 344.244C174.246 344.021 173.759 343.559 173.357 342.859ZM173.974 342.15L176.366 340.775C176.128 340.386 175.828 340.099 175.465 339.913C175.101 339.724 174.733 339.737 174.361 339.951C174.033 340.139 173.819 340.409 173.716 340.76C173.613 341.109 173.699 341.572 173.974 342.15ZM177.572 340.437C177.191 339.774 177.04 339.132 177.119 338.512C177.2 337.888 177.578 337.381 178.256 336.992C178.713 336.729 179.109 336.611 179.443 336.636C179.778 336.658 180.048 336.722 180.252 336.83C180.365 336.889 180.395 336.971 180.343 337.076L180.176 337.403C180.126 337.511 180.019 337.522 179.856 337.435C179.7 337.352 179.52 337.307 179.317 337.3C179.117 337.291 178.868 337.372 178.572 337.542C178.185 337.764 177.968 338.079 177.92 338.485C177.872 338.892 178.019 339.392 178.359 339.985C178.7 340.577 179.058 340.955 179.433 341.119C179.809 341.282 180.19 341.253 180.577 341.031C180.89 340.851 181.096 340.653 181.194 340.439C181.291 340.222 181.337 340.021 181.332 339.836C181.329 339.661 181.391 339.576 181.516 339.578L181.897 339.585C182.011 339.587 182.068 339.656 182.067 339.792C182.066 339.953 182.003 340.217 181.878 340.581C181.755 340.941 181.426 341.274 180.893 341.581C180.216 341.97 179.588 342.044 179.009 341.802C178.432 341.555 177.953 341.1 177.572 340.437ZM180.551 336.512C180.424 336.585 180.333 336.572 180.276 336.473L180.125 336.211C180.068 336.112 180.103 336.026 180.23 335.953L180.73 335.666L180.511 335.285C180.478 335.228 180.462 335.167 180.461 335.1L180.448 334.392C180.445 334.262 180.46 334.188 180.494 334.168L180.642 334.083C180.727 334.034 180.798 334.059 180.855 334.158L181.475 335.238L182.377 334.72C182.504 334.647 182.596 334.659 182.652 334.758L182.803 335.021C182.86 335.119 182.825 335.205 182.698 335.278L181.796 335.797L183.346 338.493C183.516 338.79 183.671 338.958 183.81 338.998C183.951 339.034 184.083 339.016 184.207 338.944C184.303 338.889 184.402 338.795 184.502 338.663C184.605 338.528 184.67 338.427 184.698 338.358C184.727 338.289 184.773 338.279 184.839 338.328L185.166 338.574C185.221 338.617 185.23 338.672 185.193 338.738C185.12 338.867 184.996 339.023 184.82 339.206C184.642 339.387 184.448 339.538 184.236 339.66C183.942 339.829 183.656 339.853 183.376 339.732C183.099 339.609 182.85 339.355 182.627 338.968L181.051 336.225L180.551 336.512Z" fill="#5B3D87"/>
<path d="M203.171 348.473C203.037 348.441 202.975 348.375 202.985 348.276L203.022 347.899C203.036 347.779 203.13 347.731 203.305 347.754C203.544 347.785 203.788 347.781 204.035 347.74C204.284 347.698 204.541 347.601 204.803 347.451C204.958 347.361 205.086 347.264 205.186 347.157C205.285 347.048 205.349 346.915 205.38 346.759C205.413 346.601 205.379 346.434 205.279 346.259C205.22 346.158 205.142 346.075 205.045 346.01C204.951 345.944 204.842 345.911 204.718 345.911C204.595 345.907 204.481 345.914 204.376 345.933C204.201 345.962 204.032 346.001 203.869 346.05C203.707 346.095 203.489 346.147 203.215 346.206C203.032 346.247 202.847 346.264 202.658 346.256C202.468 346.245 202.277 346.193 202.085 346.101C201.895 346.007 201.724 345.826 201.57 345.558C201.412 345.284 201.36 345.001 201.413 344.707C201.466 344.414 201.598 344.16 201.809 343.945C202.018 343.727 202.241 343.55 202.478 343.414C202.828 343.213 203.132 343.093 203.391 343.053C203.651 343.009 203.89 342.997 204.109 343.018C204.236 343.031 204.292 343.098 204.276 343.22L204.231 343.584C204.219 343.7 204.125 343.749 203.951 343.733C203.804 343.72 203.616 343.736 203.387 343.781C203.158 343.827 202.971 343.891 202.828 343.973C202.65 344.076 202.509 344.183 202.404 344.295C202.3 344.408 202.236 344.535 202.212 344.676C202.188 344.818 202.214 344.953 202.288 345.083C202.345 345.182 202.412 345.262 202.488 345.323C202.563 345.381 202.661 345.419 202.783 345.435C202.905 345.451 203.054 345.435 203.229 345.387C203.502 345.313 203.75 345.245 203.974 345.184C204.201 345.122 204.414 345.082 204.614 345.064C204.876 345.042 205.094 345.057 205.271 345.109C205.45 345.16 205.6 345.241 205.72 345.352C205.839 345.461 205.945 345.597 206.039 345.76C206.213 346.062 206.269 346.37 206.209 346.682C206.151 346.993 206.032 347.247 205.853 347.444C205.671 347.639 205.425 347.825 205.115 348.003C204.694 348.245 204.299 348.393 203.929 348.448C203.56 348.499 203.308 348.507 203.171 348.473ZM205.131 342.729C205.004 342.802 204.912 342.789 204.855 342.69L204.704 342.428C204.648 342.329 204.683 342.243 204.81 342.17L205.309 341.883L205.09 341.502C205.058 341.445 205.041 341.384 205.04 341.317L205.028 340.609C205.024 340.479 205.04 340.405 205.074 340.385L205.222 340.3C205.307 340.251 205.377 340.276 205.434 340.375L206.054 341.455L206.956 340.937C207.083 340.864 207.175 340.876 207.232 340.975L207.383 341.238C207.439 341.337 207.404 341.422 207.277 341.495L206.375 342.014L207.925 344.71C208.095 345.007 208.25 345.175 208.39 345.215C208.53 345.251 208.663 345.233 208.787 345.161C208.883 345.106 208.981 345.012 209.081 344.88C209.184 344.745 209.25 344.644 209.278 344.575C209.306 344.506 209.353 344.496 209.418 344.545L209.745 344.791C209.8 344.834 209.809 344.889 209.772 344.955C209.7 345.084 209.575 345.24 209.399 345.423C209.222 345.604 209.027 345.755 208.815 345.877C208.522 346.046 208.235 346.07 207.955 345.949C207.679 345.826 207.429 345.572 207.207 345.185L205.63 342.442L205.131 342.729ZM209.867 343.6C209.578 343.098 209.601 342.595 209.934 342.092C210.271 341.586 210.895 341.046 211.807 340.469L211.641 340.182C211.489 339.916 211.297 339.722 211.065 339.6C210.835 339.474 210.542 339.513 210.186 339.717C209.96 339.847 209.793 339.973 209.683 340.096C209.572 340.216 209.481 340.345 209.41 340.484C209.341 340.617 209.288 340.77 209.251 340.941C209.223 341.07 209.154 341.115 209.042 341.078L208.676 340.951C208.574 340.916 208.546 340.819 208.594 340.66C208.662 340.433 208.747 340.244 208.847 340.092C208.948 339.94 209.089 339.78 209.27 339.612C209.453 339.44 209.653 339.291 209.87 339.167C210.46 338.828 210.968 338.738 211.394 338.899C211.819 339.056 212.183 339.399 212.486 339.927L213.995 342.552C214.068 342.679 214.04 342.779 213.913 342.852L213.532 343.071C213.422 343.134 213.331 343.102 213.258 342.975L213.139 342.768L213.13 342.773C213.008 343.076 212.86 343.324 212.686 343.518C212.513 343.707 212.295 343.877 212.033 344.028C211.57 344.294 211.15 344.389 210.772 344.314C210.395 344.233 210.094 343.996 209.867 343.6ZM210.647 343.175C210.747 343.35 210.865 343.47 211 343.535C211.134 343.597 211.274 343.606 211.422 343.563C211.568 343.516 211.711 343.453 211.853 343.372C212.07 343.247 212.264 343.107 212.434 342.953C212.605 342.799 212.741 342.572 212.843 342.273L212.125 341.024C211.58 341.394 211.203 341.68 210.996 341.881C210.788 342.08 210.65 342.298 210.584 342.535C210.515 342.77 210.537 342.983 210.647 343.175ZM215.501 341.94C215.374 342.013 215.274 341.986 215.201 341.858L212.866 337.794C212.793 337.667 212.82 337.567 212.947 337.494L213.302 337.29C213.429 337.217 213.529 337.244 213.602 337.371L213.894 337.879L213.911 337.869C213.901 337.537 213.95 337.254 214.059 337.019C214.168 336.783 214.359 336.587 214.633 336.43C214.813 336.326 214.949 336.268 215.04 336.257C215.12 336.245 215.168 336.274 215.185 336.343L215.288 336.746C215.303 336.805 215.277 336.846 215.212 336.869C215.101 336.906 215.003 336.949 214.915 337C214.585 337.189 214.398 337.495 214.356 337.918C214.312 338.337 214.437 338.804 214.732 339.318L215.946 341.43C216.019 341.557 215.992 341.657 215.865 341.73L215.501 341.94ZM215.918 336.53C215.791 336.603 215.699 336.59 215.642 336.491L215.492 336.229C215.435 336.13 215.47 336.044 215.597 335.971L216.097 335.684L215.878 335.303C215.845 335.247 215.828 335.185 215.827 335.118L215.815 334.41C215.812 334.28 215.827 334.206 215.861 334.186L216.009 334.101C216.094 334.053 216.165 334.078 216.221 334.177L216.842 335.256L217.743 334.738C217.87 334.665 217.962 334.678 218.019 334.777L218.17 335.039C218.227 335.138 218.192 335.224 218.065 335.297L217.163 335.815L218.712 338.512C218.883 338.808 219.038 338.976 219.177 339.016C219.318 339.052 219.45 339.034 219.574 338.963C219.67 338.908 219.768 338.814 219.868 338.681C219.971 338.547 220.037 338.445 220.065 338.376C220.093 338.308 220.14 338.298 220.206 338.346L220.533 338.592C220.588 338.636 220.597 338.691 220.56 338.757C220.487 338.885 220.362 339.041 220.186 339.225C220.009 339.406 219.814 339.557 219.603 339.679C219.309 339.847 219.022 339.871 218.743 339.75C218.466 339.628 218.216 339.373 217.994 338.986L216.418 336.243L215.918 336.53Z" fill="#5B3D87"/>
<path d="M154.898 229.998C154.898 227.719 155.488 225.936 156.666 224.646C157.844 223.351 159.482 222.703 161.578 222.703C162.835 222.703 163.86 222.921 164.654 223.357C165.449 223.787 166.031 224.295 166.402 224.881C166.63 225.245 166.627 225.509 166.393 225.672L165.66 226.18C165.419 226.349 165.178 226.248 164.938 225.877C164.742 225.584 164.374 225.236 163.834 224.832C163.294 224.428 162.574 224.227 161.676 224.227C160.081 224.227 158.886 224.734 158.092 225.75C157.298 226.759 156.9 228.175 156.9 229.998C156.9 231.821 157.288 233.24 158.062 234.256C158.837 235.265 160.074 235.77 161.773 235.77C162.62 235.77 163.355 235.669 163.98 235.467C164.612 235.258 165.055 234.972 165.309 234.607V232.02H162.408C162.05 232.02 161.871 231.873 161.871 231.58V230.857C161.871 230.564 162.05 230.418 162.408 230.418H166.646C167.005 230.418 167.184 230.564 167.184 230.857V235.467C166.389 236.046 165.595 236.495 164.801 236.814C164.007 237.133 162.965 237.293 161.676 237.293C159.527 237.293 157.861 236.648 156.676 235.359C155.491 234.064 154.898 232.277 154.898 229.998ZM167.312 237C166.974 237 166.886 236.785 167.049 236.355L171.912 223.592C172.062 223.195 172.277 222.996 172.557 222.996H173.924C174.204 222.996 174.419 223.195 174.568 223.592L179.432 236.355C179.594 236.785 179.507 237 179.168 237H178.172C177.827 237 177.592 236.84 177.469 236.521L176.248 233.289H170.232L169.012 236.521C168.888 236.84 168.654 237 168.309 237H167.312ZM170.848 231.688H175.633L174.139 227.781C174.002 227.417 173.865 227.013 173.729 226.57C173.598 226.128 173.442 225.499 173.26 224.686H173.221C173.038 225.499 172.879 226.128 172.742 226.57C172.612 227.013 172.479 227.417 172.342 227.781L170.848 231.688ZM179.785 237C179.46 237 179.297 236.821 179.297 236.463V223.533C179.297 223.175 179.46 222.996 179.785 222.996H181.865C182.113 222.996 182.298 223.191 182.422 223.582L185.215 232.342C185.501 233.24 185.671 233.784 185.723 233.973C185.775 234.155 185.85 234.493 185.947 234.988H186.006C186.104 234.493 186.178 234.155 186.23 233.973C186.283 233.784 186.452 233.24 186.738 232.342L189.531 223.582C189.655 223.191 189.84 222.996 190.088 222.996H192.168C192.493 222.996 192.656 223.175 192.656 223.533V236.463C192.656 236.821 192.493 237 192.168 237H191.27C190.944 237 190.781 236.821 190.781 236.463V226.219C190.781 225.958 190.788 225.698 190.801 225.438H190.762L187.158 236.404C187.028 236.801 186.813 237 186.514 237H185.439C185.14 237 184.925 236.801 184.795 236.404L181.191 225.438H181.152C181.165 225.698 181.172 225.958 181.172 226.219V236.463C181.172 236.821 181.009 237 180.684 237H179.785ZM194.465 237C194.139 237 193.977 236.821 193.977 236.463V223.533C193.977 223.175 194.139 222.996 194.465 222.996H203.01C203.368 222.996 203.547 223.143 203.547 223.436V224.158C203.547 224.451 203.368 224.598 203.01 224.598H195.852V228.934H202.424C202.782 228.934 202.961 229.08 202.961 229.373V230.096C202.961 230.389 202.782 230.535 202.424 230.535H195.852V235.398H203.303C203.661 235.398 203.84 235.545 203.84 235.838V236.561C203.84 236.854 203.661 237 203.303 237H194.465ZM208.277 229.998C208.277 227.719 208.867 225.936 210.045 224.646C211.223 223.351 212.861 222.703 214.957 222.703C216.214 222.703 217.239 222.921 218.033 223.357C218.827 223.787 219.41 224.295 219.781 224.881C220.009 225.245 220.006 225.509 219.771 225.672L219.039 226.18C218.798 226.349 218.557 226.248 218.316 225.877C218.121 225.584 217.753 225.236 217.213 224.832C216.673 224.428 215.953 224.227 215.055 224.227C213.46 224.227 212.265 224.734 211.471 225.75C210.676 226.759 210.279 228.175 210.279 229.998C210.279 231.821 210.667 233.24 211.441 234.256C212.216 235.265 213.453 235.77 215.152 235.77C215.999 235.77 216.734 235.669 217.359 235.467C217.991 235.258 218.434 234.972 218.688 234.607V232.02H215.787C215.429 232.02 215.25 231.873 215.25 231.58V230.857C215.25 230.564 215.429 230.418 215.787 230.418H220.025C220.383 230.418 220.562 230.564 220.562 230.857V235.467C219.768 236.046 218.974 236.495 218.18 236.814C217.385 237.133 216.344 237.293 215.055 237.293C212.906 237.293 211.24 236.648 210.055 235.359C208.87 234.064 208.277 232.277 208.277 229.998ZM221.395 231.658V223.533C221.395 223.175 221.557 222.996 221.883 222.996H222.781C223.107 222.996 223.27 223.175 223.27 223.533V231.365C223.27 233.188 223.527 234.38 224.041 234.939C224.562 235.493 225.408 235.77 226.58 235.77C227.752 235.77 228.595 235.493 229.109 234.939C229.63 234.38 229.891 233.188 229.891 231.365V223.533C229.891 223.175 230.053 222.996 230.379 222.996H231.277C231.603 222.996 231.766 223.175 231.766 223.533V231.658C231.766 233.722 231.29 235.177 230.34 236.023C229.396 236.87 228.143 237.293 226.58 237.293C225.018 237.293 223.761 236.87 222.811 236.023C221.867 235.177 221.395 233.722 221.395 231.658ZM232.373 223.641C232.093 223.211 232.181 222.996 232.637 222.996H233.73C234.017 222.996 234.251 223.156 234.434 223.475L236.914 227.742C237.188 228.211 237.422 228.621 237.617 228.973C237.812 229.318 238.001 229.686 238.184 230.076H238.223C238.405 229.686 238.594 229.318 238.789 228.973C238.984 228.621 239.219 228.211 239.492 227.742L241.973 223.475C242.155 223.156 242.389 222.996 242.676 222.996H243.77C244.225 222.996 244.313 223.211 244.033 223.641L239.141 231.238V236.463C239.141 236.821 238.978 237 238.652 237H237.754C237.428 237 237.266 236.821 237.266 236.463V231.238L232.373 223.641Z" fill="#5B3D87"/>
<defs>
<filter id="filter0_d_4_120" x="238.212" y="267.942" width="39.0027" height="39.0026" filterUnits="userSpaceOnUse" color-interpolation-filters="sRGB">
<feFlood flood-opacity="0" result="BackgroundImageFix"/>
<feColorMatrix in="SourceAlpha" type="matrix" values="0 0 0 0 0 0 0 0 0 0 0 0 0 0 0 0 0 0 127 0" result="hardAlpha"/>
<feOffset dx="1" dy="1"/>
<feGaussianBlur stdDeviation="1"/>
<feComposite in2="hardAlpha" operator="out"/>
<feColorMatrix type="matrix" values="0 0 0 0 0 0 0 0 0 0 0 0 0 0 0 0 0 0 0.25 0"/>
<feBlend mode="normal" in2="BackgroundImageFix" result="effect1_dropShadow_4_120"/>
<feBlend mode="normal" in="SourceGraphic" in2="effect1_dropShadow_4_120" result="shape"/>
</filter>
<filter id="filter1_d_4_120" x="285.888" y="247.667" width="39.0027" height="39.0026" filterUnits="userSpaceOnUse" color-interpolation-filters="sRGB">
<feFlood flood-opacity="0" result="BackgroundImageFix"/>
<feColorMatrix in="SourceAlpha" type="matrix" values="0 0 0 0 0 0 0 0 0 0 0 0 0 0 0 0 0 0 127 0" result="hardAlpha"/>
<feOffset dx="1" dy="1"/>
<feGaussianBlur stdDeviation="1"/>
<feComposite in2="hardAlpha" operator="out"/>
<feColorMatrix type="matrix" values="0 0 0 0 0 0 0 0 0 0 0 0 0 0 0 0 0 0 0.25 0"/>
<feBlend mode="normal" in2="BackgroundImageFix" result="effect1_dropShadow_4_120"/>
<feBlend mode="normal" in="SourceGraphic" in2="effect1_dropShadow_4_120" result="shape"/>
</filter>
<filter id="filter2_i_4_120" x="114" y="268" width="17" height="17" filterUnits="userSpaceOnUse" color-interpolation-filters="sRGB">
<feFlood flood-opacity="0" result="BackgroundImageFix"/>
<feBlend mode="normal" in="SourceGraphic" in2="BackgroundImageFix" result="shape"/>
<feColorMatrix in="SourceAlpha" type="matrix" values="0 0 0 0 0 0 0 0 0 0 0 0 0 0 0 0 0 0 127 0" result="hardAlpha"/>
<feMorphology radius="2" operator="erode" in="SourceAlpha" result="effect1_innerShadow_4_120"/>
<feOffset/>
<feGaussianBlur stdDeviation="1"/>
<feComposite in2="hardAlpha" operator="arithmetic" k2="-1" k3="1"/>
<feColorMatrix type="matrix" values="0 0 0 0 0 0 0 0 0 0 0 0 0 0 0 0 0 0 0.07 0"/>
<feBlend mode="normal" in2="shape" result="effect1_innerShadow_4_120"/>
</filter>
<filter id="filter3_i_4_120" x="125" y="54" width="150" height="150" filterUnits="userSpaceOnUse" color-interpolation-filters="sRGB">
<feFlood flood-opacity="0" result="BackgroundImageFix"/>
<feBlend mode="normal" in="SourceGraphic" in2="BackgroundImageFix" result="shape"/>
<feColorMatrix in="SourceAlpha" type="matrix" values="0 0 0 0 0 0 0 0 0 0 0 0 0 0 0 0 0 0 127 0" result="hardAlpha"/>
<feMorphology radius="2" operator="erode" in="SourceAlpha" result="effect1_innerShadow_4_120"/>
<feOffset/>
<feGaussianBlur stdDeviation="1"/>
<feComposite in2="hardAlpha" operator="arithmetic" k2="-1" k3="1"/>
<feColorMatrix type="matrix" values="0 0 0 0 0 0 0 0 0 0 0 0 0 0 0 0 0 0 0.25 0"/>
<feBlend mode="normal" in2="shape" result="effect1_innerShadow_4_120"/>
</filter>
<filter id="filter4_i_4_120" x="105" y="99" width="7" height="7" filterUnits="userSpaceOnUse" color-interpolation-filters="sRGB">
<feFlood flood-opacity="0" result="BackgroundImageFix"/>
<feBlend mode="normal" in="SourceGraphic" in2="BackgroundImageFix" result="shape"/>
<feColorMatrix in="SourceAlpha" type="matrix" values="0 0 0 0 0 0 0 0 0 0 0 0 0 0 0 0 0 0 127 0" result="hardAlpha"/>
<feOffset/>
<feGaussianBlur stdDeviation="1"/>
<feComposite in2="hardAlpha" operator="arithmetic" k2="-1" k3="1"/>
<feColorMatrix type="matrix" values="0 0 0 0 0 0 0 0 0 0 0 0 0 0 0 0 0 0 0.25 0"/>
<feBlend mode="normal" in2="shape" result="effect1_innerShadow_4_120"/>
</filter>
<filter id="filter5_i_4_120" x="96" y="14" width="33" height="8" filterUnits="userSpaceOnUse" color-interpolation-filters="sRGB">
<feFlood flood-opacity="0" result="BackgroundImageFix"/>
<feBlend mode="normal" in="SourceGraphic" in2="BackgroundImageFix" result="shape"/>
<feColorMatrix in="SourceAlpha" type="matrix" values="0 0 0 0 0 0 0 0 0 0 0 0 0 0 0 0 0 0 127 0" result="hardAlpha"/>
<feOffset/>
<feGaussianBlur stdDeviation="1"/>
<feComposite in2="hardAlpha" operator="arithmetic" k2="-1" k3="1"/>
<feColorMatrix type="matrix" values="0 0 0 0 0 0 0 0 0 0 0 0 0 0 0 0 0 0 0.25 0"/>
<feBlend mode="normal" in2="shape" result="effect1_innerShadow_4_120"/>
</filter>
<filter id="filter6_i_4_120" x="166" y="373" width="43" height="11" filterUnits="userSpaceOnUse" color-interpolation-filters="sRGB">
<feFlood flood-opacity="0" result="BackgroundImageFix"/>
<feBlend mode="normal" in="SourceGraphic" in2="BackgroundImageFix" result="shape"/>
<feColorMatrix in="SourceAlpha" type="matrix" values="0 0 0 0 0 0 0 0 0 0 0 0 0 0 0 0 0 0 127 0" result="hardAlpha"/>
<feOffset/>
<feGaussianBlur stdDeviation="1"/>
<feComposite in2="hardAlpha" operator="arithmetic" k2="-1" k3="1"/>
<feColorMatrix type="matrix" values="0 0 0 0 0 0 0 0 0 0 0 0 0 0 0 0 0 0 0.25 0"/>
<feBlend mode="normal" in2="shape" result="effect1_innerShadow_4_120"/>
</filter>
<filter id="filter7_i_4_120" x="299.806" y="328.389" width="20.6284" height="34.6984" filterUnits="userSpaceOnUse" color-interpolation-filters="sRGB">
<feFlood flood-opacity="0" result="BackgroundImageFix"/>
<feBlend mode="normal" in="SourceGraphic" in2="BackgroundImageFix" result="shape"/>
<feColorMatrix in="SourceAlpha" type="matrix" values="0 0 0 0 0 0 0 0 0 0 0 0 0 0 0 0 0 0 127 0" result="hardAlpha"/>
<feOffset/>
<feGaussianBlur stdDeviation="1"/>
<feComposite in2="hardAlpha" operator="arithmetic" k2="-1" k3="1"/>
<feColorMatrix type="matrix" values="0 0 0 0 0 0 0 0 0 0 0 0 0 0 0 0 0 0 0.69 0"/>
<feBlend mode="normal" in2="shape" result="effect1_innerShadow_4_120"/>
</filter>
<filter id="filter8_i_4_120" x="286.197" y="332.312" width="20.6284" height="34.6984" filterUnits="userSpaceOnUse" color-interpolation-filters="sRGB">
<feFlood flood-opacity="0" result="BackgroundImageFix"/>
<feBlend mode="normal" in="SourceGraphic" in2="BackgroundImageFix" result="shape"/>
<feColorMatrix in="SourceAlpha" type="matrix" values="0 0 0 0 0 0 0 0 0 0 0 0 0 0 0 0 0 0 127 0" result="hardAlpha"/>
<feOffset/>
<feGaussianBlur stdDeviation="1"/>
<feComposite in2="hardAlpha" operator="arithmetic" k2="-1" k3="1"/>
<feColorMatrix type="matrix" values="0 0 0 0 0 0 0 0 0 0 0 0 0 0 0 0 0 0 0.69 0"/>
<feBlend mode="normal" in2="shape" result="effect1_innerShadow_4_120"/>
</filter>
<filter id="filter9_i_4_120" x="272.59" y="336.155" width="20.6284" height="34.6984" filterUnits="userSpaceOnUse" color-interpolation-filters="sRGB">
<feFlood flood-opacity="0" result="BackgroundImageFix"/>
<feBlend mode="normal" in="SourceGraphic" in2="BackgroundImageFix" result="shape"/>
<feColorMatrix in="SourceAlpha" type="matrix" values="0 0 0 0 0 0 0 0 0 0 0 0 0 0 0 0 0 0 127 0" result="hardAlpha"/>
<feOffset/>
<feGaussianBlur stdDeviation="1"/>
<feComposite in2="hardAlpha" operator="arithmetic" k2="-1" k3="1"/>
<feColorMatrix type="matrix" values="0 0 0 0 0 0 0 0 0 0 0 0 0 0 0 0 0 0 0.69 0"/>
<feBlend mode="normal" in2="shape" result="effect1_innerShadow_4_120"/>
</filter>
<filter id="filter10_i_4_120" x="258.982" y="339.998" width="20.6284" height="34.6984" filterUnits="userSpaceOnUse" color-interpolation-filters="sRGB">
<feFlood flood-opacity="0" result="BackgroundImageFix"/>
<feBlend mode="normal" in="SourceGraphic" in2="BackgroundImageFix" result="shape"/>
<feColorMatrix in="SourceAlpha" type="matrix" values="0 0 0 0 0 0 0 0 0 0 0 0 0 0 0 0 0 0 127 0" result="hardAlpha"/>
<feOffset/>
<feGaussianBlur stdDeviation="1"/>
<feComposite in2="hardAlpha" operator="arithmetic" k2="-1" k3="1"/>
<feColorMatrix type="matrix" values="0 0 0 0 0 0 0 0 0 0 0 0 0 0 0 0 0 0 0.69 0"/>
<feBlend mode="normal" in2="shape" result="effect1_innerShadow_4_120"/>
</filter>
<filter id="filter11_i_4_120" x="245.373" y="343.921" width="20.6284" height="34.6984" filterUnits="userSpaceOnUse" color-interpolation-filters="sRGB">
<feFlood flood-opacity="0" result="BackgroundImageFix"/>
<feBlend mode="normal" in="SourceGraphic" in2="BackgroundImageFix" result="shape"/>
<feColorMatrix in="SourceAlpha" type="matrix" values="0 0 0 0 0 0 0 0 0 0 0 0 0 0 0 0 0 0 127 0" result="hardAlpha"/>
<feOffset/>
<feGaussianBlur stdDeviation="1"/>
<feComposite in2="hardAlpha" operator="arithmetic" k2="-1" k3="1"/>
<feColorMatrix type="matrix" values="0 0 0 0 0 0 0 0 0 0 0 0 0 0 0 0 0 0 0.69 0"/>
<feBlend mode="normal" in2="shape" result="effect1_innerShadow_4_120"/>
</filter>
<filter id="filter12_i_4_120" x="231.766" y="347.764" width="20.6284" height="34.6984" filterUnits="userSpaceOnUse" color-interpolation-filters="sRGB">
<feFlood flood-opacity="0" result="BackgroundImageFix"/>
<feBlend mode="normal" in="SourceGraphic" in2="BackgroundImageFix" result="shape"/>
<feColorMatrix in="SourceAlpha" type="matrix" values="0 0 0 0 0 0 0 0 0 0 0 0 0 0 0 0 0 0 127 0" result="hardAlpha"/>
<feOffset/>
<feGaussianBlur stdDeviation="1"/>
<feComposite in2="hardAlpha" operator="arithmetic" k2="-1" k3="1"/>
<feColorMatrix type="matrix" values="0 0 0 0 0 0 0 0 0 0 0 0 0 0 0 0 0 0 0.69 0"/>
<feBlend mode="normal" in2="shape" result="effect1_innerShadow_4_120"/>
</filter>
<filter id="filter13_d_4_120" x="153.098" y="323.098" width="28.5591" height="20.7156" filterUnits="userSpaceOnUse" color-interpolation-filters="sRGB">
<feFlood flood-opacity="0" result="BackgroundImageFix"/>
<feColorMatrix in="SourceAlpha" type="matrix" values="0 0 0 0 0 0 0 0 0 0 0 0 0 0 0 0 0 0 127 0" result="hardAlpha"/>
<feMorphology radius="1" operator="dilate" in="SourceAlpha" result="effect1_dropShadow_4_120"/>
<feOffset/>
<feGaussianBlur stdDeviation="0.5"/>
<feComposite in2="hardAlpha" operator="out"/>
<feColorMatrix type="matrix" values="0 0 0 0 0 0 0 0 0 0 0 0 0 0 0 0 0 0 0.4 0"/>
<feBlend mode="normal" in2="BackgroundImageFix" result="effect1_dropShadow_4_120"/>
<feBlend mode="normal" in="SourceGraphic" in2="effect1_dropShadow_4_120" result="shape"/>
</filter>
<filter id="filter14_d_4_120" x="189.098" y="323.098" width="28.5591" height="20.7156" filterUnits="userSpaceOnUse" color-interpolation-filters="sRGB">
<feFlood flood-opacity="0" result="BackgroundImageFix"/>
<feColorMatrix in="SourceAlpha" type="matrix" values="0 0 0 0 0 0 0 0 0 0 0 0 0 0 0 0 0 0 127 0" result="hardAlpha"/>
<feMorphology radius="1" operator="dilate" in="SourceAlpha" result="effect1_dropShadow_4_120"/>
<feOffset/>
<feGaussianBlur stdDeviation="0.5"/>
<feComposite in2="hardAlpha" operator="out"/>
<feColorMatrix type="matrix" values="0 0 0 0 0 0 0 0 0 0 0 0 0 0 0 0 0 0 0.4 0"/>
<feBlend mode="normal" in2="BackgroundImageFix" result="effect1_dropShadow_4_120"/>
<feBlend mode="normal" in="SourceGraphic" in2="effect1_dropShadow_4_120" result="shape"/>
</filter>
</defs>
</svg>
