<svg width="400" height="400" viewBox="0 0 400 400" fill="none" xmlns="http://www.w3.org/2000/svg">
<path d="M113.886 97.6731C113.732 88.6309 107.635 80.182 98.6285 79.366C87.1311 78.3243 66.8821 78.868 25.2949 85.0508C15.2475 86.5445 7.99766 95.4668 8.4729 105.614L9.28167 122.881C9.78143 133.551 18.5779 141.945 29.2598 141.945H94.2958C105.475 141.945 114.483 132.782 114.293 121.605L113.886 97.6731Z" fill="#CECECE"/>
<path d="M110.496 89.0402C110.646 86.2624 109.684 83.4657 107.537 81.6968C91.9477 68.8527 86.8532 92.9606 13.6423 101.063C8.54952 101.627 4.56903 105.857 4.48538 110.981C3.33315 181.55 3.90593 221.726 9.8231 293.481C10.1896 297.926 13.4735 301.596 17.8586 302.408C54.1537 309.131 54.9495 305.639 98.2745 315.14L110.496 89.0402Z" fill="#713C9B"/>
<path d="M286.753 97.6731C286.907 88.6309 293.004 80.182 302.01 79.366C313.508 78.3243 333.757 78.868 375.344 85.0508C385.392 86.5445 392.641 95.4668 392.166 105.614L391.357 122.881C390.858 133.551 382.061 141.945 371.379 141.945H306.343C295.164 141.945 286.156 132.782 286.346 121.605L286.753 97.6731Z" fill="#CECECE"/>
<path d="M290.143 89.0402C289.993 86.2624 290.955 83.4657 293.102 81.6968C308.691 68.8527 313.786 92.9606 386.997 101.063C392.09 101.627 396.07 105.857 396.154 110.981C397.306 181.55 396.733 221.726 390.816 293.481C390.449 297.926 387.166 301.596 382.78 302.408C346.485 309.131 345.69 305.639 302.365 315.14L290.143 89.0402Z" fill="#713C9B"/>
<path d="M88.2168 88C88.2168 82.4772 92.6939 78 98.2168 78H301.199C306.722 78 311.199 82.4772 311.199 88V304.98C311.199 310.04 307.41 314.307 302.384 314.894C224.416 323.995 176.679 325.202 96.8956 314.986C91.9279 314.35 88.2168 310.109 88.2168 305.101V88Z" fill="#713C9B"/>
<path d="M91 117.399C91 106.777 99.3252 97.9983 109.934 97.4757C177.114 94.1663 221.884 94.1822 289.06 97.4797C299.671 98.0006 308 106.78 308 117.404V273.923C308 283.316 301.465 291.472 292.259 293.334C222.146 307.521 176.821 307.586 106.72 293.345C97.5233 291.477 91 283.326 91 273.941V117.399Z" fill="#303036"/>
<g filter="url(#filter0_i_5_124)">
<rect x="106" y="114" width="188" height="146" fill="#72756F"/>
</g>
<path d="M160.996 274.406H162.334L168.066 288H166.035L164.658 284.582H158.623L157.256 288H155.264L160.996 274.406ZM164.033 283.02L161.65 277.062L159.258 283.02H164.033ZM169.844 274.416H173.145C175.371 274.416 177.135 274.966 178.438 276.066C179.844 277.245 180.547 278.964 180.547 281.223C180.547 283.482 179.863 285.197 178.496 286.369C177.22 287.456 175.469 288 173.242 288H169.844V274.416ZM178.545 281.232C178.545 277.736 176.702 275.988 173.018 275.988H171.797V286.438H173.125C175.938 286.438 177.65 285.422 178.262 283.391C178.451 282.746 178.545 282.027 178.545 281.232ZM181.25 274.406H183.281L187.549 285.578L191.797 274.406H193.828L188.477 288H186.602L181.25 274.406ZM199.395 274.406H200.732L206.465 288H204.434L203.057 284.582H197.021L195.654 288H193.662L199.395 274.406ZM202.432 283.02L200.049 277.062L197.656 283.02H202.432ZM208.232 274.406H209.639L216.738 284.436L216.631 283.029V274.406H218.564V288H217.168L211.24 279.67L210.059 277.971L210.166 279.67V288H208.232V274.406ZM230.82 287.922C230.176 288.039 229.307 288.098 228.213 288.098C227.126 288.098 226.143 287.948 225.264 287.648C224.391 287.349 223.639 286.906 223.008 286.32C221.654 285.064 220.977 283.312 220.977 281.066C220.977 279.602 221.325 278.332 222.021 277.258C222.965 275.806 224.414 274.882 226.367 274.484C226.966 274.367 227.679 274.309 228.506 274.309C229.339 274.309 230.007 274.354 230.508 274.445V276.311C230.052 276.167 229.346 276.096 228.389 276.096C227.438 276.096 226.631 276.213 225.967 276.447C225.303 276.682 224.753 277.017 224.316 277.453C223.444 278.306 223.008 279.51 223.008 281.066C223.008 282.635 223.438 283.879 224.297 284.797C225.228 285.786 226.566 286.281 228.311 286.281C229.333 286.281 230.169 286.203 230.82 286.047V287.922ZM233.262 274.406H242.041V276.105H235.215V280.109H240.381V281.75H235.215V286.281H242.041V288H233.262V274.406Z" fill="white"/>
<path d="M38.6719 137C38.6719 136.448 39.1196 136 39.6719 136H59.3281C59.8804 136 60.3281 136.448 60.3281 137V164.594H38.6719V137Z" fill="#2C2C2C"/>
<path d="M19 176.984C18.4477 176.984 18 176.537 18 175.984V157.016C18 156.463 18.4477 156.016 19 156.016H45.5625V176.984H19Z" fill="#2C2C2C"/>
<path d="M80 156.016C80.5523 156.016 81 156.463 81 157.016V175.984C81 176.537 80.5523 176.984 80 176.984H55.4062V156.016H80Z" fill="#2C2C2C"/>
<path d="M60.3281 196C60.3281 196.552 59.8804 197 59.3281 197H39.6719C39.1196 197 38.6719 196.552 38.6719 196V170.312H60.3281V196Z" fill="#2C2C2C"/>
<rect x="19.0531" y="156.415" width="60.0927" height="20.1708" fill="#2C2C2C"/>
<rect x="39.084" y="195.98" width="58.185" height="20.8321" transform="rotate(-90 39.084 195.98)" fill="#2C2C2C"/>
<path d="M40.5719 138.906C40.5719 138.354 41.0196 137.906 41.5719 137.906H57.428C57.9803 137.906 58.428 138.354 58.428 138.906V157.855H40.5719V138.906Z" fill="#CBCCC9"/>
<path d="M20.9687 175.145C20.4165 175.145 19.9688 174.697 19.9688 174.145V158.855C19.9688 158.303 20.4165 157.855 20.9688 157.855H40.5719V175.145H20.9687Z" fill="#CBCCC9"/>
<path d="M78.0313 157.855C78.5835 157.855 79.0312 158.303 79.0312 158.855V174.145C79.0312 174.697 78.5835 175.145 78.0312 175.145H58.4281V157.855H78.0313Z" fill="#CBCCC9"/>
<path d="M58.4281 194.094C58.4281 194.646 57.9804 195.094 57.4281 195.094H41.572C41.0197 195.094 40.572 194.646 40.572 194.094V179.145C40.572 176.935 42.3629 175.145 44.572 175.145H58.4281V194.094Z" fill="#CBCCC9"/>
<rect x="23.4027" y="157.855" width="51.508" height="17.2892" fill="#CBCCC9"/>
<rect x="40.5719" y="191.769" width="49.8728" height="17.8561" transform="rotate(-90 40.5719 191.769)" fill="#CBCCC9"/>
<g filter="url(#filter1_i_5_124)">
<circle cx="49.5" cy="166.5" r="8.5" fill="#CBCCC9"/>
</g>
<g filter="url(#filter2_i_5_124)">
<rect x="38.804" y="222" width="51.7923" height="14.5276" rx="6" transform="rotate(19.3101 38.804 222)" fill="#713C9B"/>
</g>
<g filter="url(#filter3_i_5_124)">
<rect x="35.804" y="243" width="51.7923" height="14.5276" rx="6" transform="rotate(19.3101 35.804 243)" fill="#713C9B"/>
</g>
<g filter="url(#filter4_d_5_124)">
<circle cx="77" cy="243" r="6" fill="#CBCCC9"/>
</g>
<g filter="url(#filter5_d_5_124)">
<circle cx="74" cy="264" r="6" fill="#CBCCC9"/>
</g>
<g filter="url(#filter6_i_5_124)">
<path d="M320.2 243.562C320.106 242.201 321.098 240.886 322.436 240.594C337.986 237.207 347.882 235.35 364.225 232.823C365.572 232.615 366.723 233.534 366.817 234.899V234.899C366.917 236.342 365.803 237.714 364.378 237.914C348.577 240.139 338.692 241.902 322.994 245.598C321.577 245.932 320.3 245.006 320.2 243.562V243.562Z" fill="#3E3E43"/>
</g>
<g filter="url(#filter7_i_5_124)">
<path d="M320.2 252.65C320.106 251.289 321.098 249.973 322.436 249.682C337.986 246.295 347.882 244.437 364.225 241.911C365.572 241.702 366.723 242.622 366.817 243.987V243.987C366.917 245.43 365.803 246.802 364.378 247.002C348.577 249.227 338.692 250.99 322.994 254.686C321.577 255.02 320.3 254.094 320.2 252.65V252.65Z" fill="#3E3E43"/>
</g>
<g filter="url(#filter8_i_5_124)">
<path d="M320.2 261.737C320.106 260.376 321.098 259.061 322.436 258.77C337.986 255.382 347.882 253.525 364.225 250.998C365.572 250.79 366.723 251.71 366.817 253.075V253.075C366.917 254.518 365.803 255.889 364.378 256.09C348.577 258.315 338.692 260.077 322.994 263.774C321.577 264.108 320.3 263.182 320.2 261.737V261.737Z" fill="#3E3E43"/>
</g>
<g filter="url(#filter9_i_5_124)">
<path d="M320.2 270.825C320.106 269.464 321.098 268.149 322.436 267.857C337.986 264.47 347.882 262.613 364.225 260.086C365.572 259.878 366.723 260.798 366.817 262.163V262.163C366.917 263.605 365.803 264.977 364.378 265.178C348.577 267.402 338.692 269.165 322.994 272.862C321.577 273.195 320.3 272.27 320.2 270.825V270.825Z" fill="#3E3E43"/>
</g>
<g filter="url(#filter10_i_5_124)">
<path d="M320.2 279.913C320.106 278.552 321.098 277.237 322.436 276.945C337.986 273.558 347.882 271.701 364.225 269.174C365.572 268.966 366.723 269.885 366.817 271.25V271.25C366.917 272.693 365.803 274.065 364.378 274.266C348.577 276.49 338.692 278.253 322.994 281.95C321.577 282.283 320.3 281.357 320.2 279.913V279.913Z" fill="#3E3E43"/>
</g>
<g filter="url(#filter11_d_5_124)">
<circle cx="332.5" cy="189.5" r="12.5" fill="#CBCCC9"/>
</g>
<g filter="url(#filter12_d_5_124)">
<circle cx="364.5" cy="176.5" r="12.5" fill="#CBCCC9"/>
</g>
<circle cx="335.5" cy="114.5" r="4.5" fill="#303036" fill-opacity="0.73"/>
<defs>
<filter id="filter0_i_5_124" x="106" y="114" width="188" height="146" filterUnits="userSpaceOnUse" color-interpolation-filters="sRGB">
<feFlood flood-opacity="0" result="BackgroundImageFix"/>
<feBlend mode="normal" in="SourceGraphic" in2="BackgroundImageFix" result="shape"/>
<feColorMatrix in="SourceAlpha" type="matrix" values="0 0 0 0 0 0 0 0 0 0 0 0 0 0 0 0 0 0 127 0" result="hardAlpha"/>
<feMorphology radius="2" operator="erode" in="SourceAlpha" result="effect1_innerShadow_5_124"/>
<feOffset/>
<feGaussianBlur stdDeviation="2"/>
<feComposite in2="hardAlpha" operator="arithmetic" k2="-1" k3="1"/>
<feColorMatrix type="matrix" values="0 0 0 0 0 0 0 0 0 0 0 0 0 0 0 0 0 0 0.25 0"/>
<feBlend mode="normal" in2="shape" result="effect1_innerShadow_5_124"/>
</filter>
<filter id="filter1_i_5_124" x="41" y="158" width="17" height="17" filterUnits="userSpaceOnUse" color-interpolation-filters="sRGB">
<feFlood flood-opacity="0" result="BackgroundImageFix"/>
<feBlend mode="normal" in="SourceGraphic" in2="BackgroundImageFix" result="shape"/>
<feColorMatrix in="SourceAlpha" type="matrix" values="0 0 0 0 0 0 0 0 0 0 0 0 0 0 0 0 0 0 127 0" result="hardAlpha"/>
<feMorphology radius="2" operator="erode" in="SourceAlpha" result="effect1_innerShadow_5_124"/>
<feOffset/>
<feGaussianBlur stdDeviation="1"/>
<feComposite in2="hardAlpha" operator="arithmetic" k2="-1" k3="1"/>
<feColorMatrix type="matrix" values="0 0 0 0 0 0 0 0 0 0 0 0 0 0 0 0 0 0 0.07 0"/>
<feBlend mode="normal" in2="shape" result="effect1_innerShadow_5_124"/>
</filter>
<filter id="filter2_i_5_124" x="35.6449" y="223.645" width="50.3928" height="27.5472" filterUnits="userSpaceOnUse" color-interpolation-filters="sRGB">
<feFlood flood-opacity="0" result="BackgroundImageFix"/>
<feBlend mode="normal" in="SourceGraphic" in2="BackgroundImageFix" result="shape"/>
<feColorMatrix in="SourceAlpha" type="matrix" values="0 0 0 0 0 0 0 0 0 0 0 0 0 0 0 0 0 0 127 0" result="hardAlpha"/>
<feMorphology radius="1" operator="erode" in="SourceAlpha" result="effect1_innerShadow_5_124"/>
<feOffset/>
<feGaussianBlur stdDeviation="0.5"/>
<feComposite in2="hardAlpha" operator="arithmetic" k2="-1" k3="1"/>
<feColorMatrix type="matrix" values="0 0 0 0 0 0 0 0 0 0 0 0 0 0 0 0 0 0 0.25 0"/>
<feBlend mode="normal" in2="shape" result="effect1_innerShadow_5_124"/>
</filter>
<filter id="filter3_i_5_124" x="32.6449" y="244.645" width="50.3928" height="27.5472" filterUnits="userSpaceOnUse" color-interpolation-filters="sRGB">
<feFlood flood-opacity="0" result="BackgroundImageFix"/>
<feBlend mode="normal" in="SourceGraphic" in2="BackgroundImageFix" result="shape"/>
<feColorMatrix in="SourceAlpha" type="matrix" values="0 0 0 0 0 0 0 0 0 0 0 0 0 0 0 0 0 0 127 0" result="hardAlpha"/>
<feMorphology radius="1" operator="erode" in="SourceAlpha" result="effect1_innerShadow_5_124"/>
<feOffset/>
<feGaussianBlur stdDeviation="0.5"/>
<feComposite in2="hardAlpha" operator="arithmetic" k2="-1" k3="1"/>
<feColorMatrix type="matrix" values="0 0 0 0 0 0 0 0 0 0 0 0 0 0 0 0 0 0 0.25 0"/>
<feBlend mode="normal" in2="shape" result="effect1_innerShadow_5_124"/>
</filter>
<filter id="filter4_d_5_124" x="71" y="237" width="14" height="14" filterUnits="userSpaceOnUse" color-interpolation-filters="sRGB">
<feFlood flood-opacity="0" result="BackgroundImageFix"/>
<feColorMatrix in="SourceAlpha" type="matrix" values="0 0 0 0 0 0 0 0 0 0 0 0 0 0 0 0 0 0 127 0" result="hardAlpha"/>
<feOffset dx="1" dy="1"/>
<feGaussianBlur stdDeviation="0.5"/>
<feComposite in2="hardAlpha" operator="out"/>
<feColorMatrix type="matrix" values="0 0 0 0 0 0 0 0 0 0 0 0 0 0 0 0 0 0 0.28 0"/>
<feBlend mode="normal" in2="BackgroundImageFix" result="effect1_dropShadow_5_124"/>
<feBlend mode="normal" in="SourceGraphic" in2="effect1_dropShadow_5_124" result="shape"/>
</filter>
<filter id="filter5_d_5_124" x="68" y="258" width="14" height="14" filterUnits="userSpaceOnUse" color-interpolation-filters="sRGB">
<feFlood flood-opacity="0" result="BackgroundImageFix"/>
<feColorMatrix in="SourceAlpha" type="matrix" values="0 0 0 0 0 0 0 0 0 0 0 0 0 0 0 0 0 0 127 0" result="hardAlpha"/>
<feOffset dx="1" dy="1"/>
<feGaussianBlur stdDeviation="0.5"/>
<feComposite in2="hardAlpha" operator="out"/>
<feColorMatrix type="matrix" values="0 0 0 0 0 0 0 0 0 0 0 0 0 0 0 0 0 0 0.28 0"/>
<feBlend mode="normal" in2="BackgroundImageFix" result="effect1_dropShadow_5_124"/>
<feBlend mode="normal" in="SourceGraphic" in2="effect1_dropShadow_5_124" result="shape"/>
</filter>
<filter id="filter6_i_5_124" x="320.194" y="232.793" width="46.6292" height="12.8732" filterUnits="userSpaceOnUse" color-interpolation-filters="sRGB">
<feFlood flood-opacity="0" result="BackgroundImageFix"/>
<feBlend mode="normal" in="SourceGraphic" in2="BackgroundImageFix" result="shape"/>
<feColorMatrix in="SourceAlpha" type="matrix" values="0 0 0 0 0 0 0 0 0 0 0 0 0 0 0 0 0 0 127 0" result="hardAlpha"/>
<feOffset/>
<feGaussianBlur stdDeviation="1.5"/>
<feComposite in2="hardAlpha" operator="arithmetic" k2="-1" k3="1"/>
<feColorMatrix type="matrix" values="0 0 0 0 0 0 0 0 0 0 0 0 0 0 0 0 0 0 0.62 0"/>
<feBlend mode="normal" in2="shape" result="effect1_innerShadow_5_124"/>
</filter>
<filter id="filter7_i_5_124" x="320.194" y="241.881" width="46.6292" height="12.8732" filterUnits="userSpaceOnUse" color-interpolation-filters="sRGB">
<feFlood flood-opacity="0" result="BackgroundImageFix"/>
<feBlend mode="normal" in="SourceGraphic" in2="BackgroundImageFix" result="shape"/>
<feColorMatrix in="SourceAlpha" type="matrix" values="0 0 0 0 0 0 0 0 0 0 0 0 0 0 0 0 0 0 127 0" result="hardAlpha"/>
<feOffset/>
<feGaussianBlur stdDeviation="1.5"/>
<feComposite in2="hardAlpha" operator="arithmetic" k2="-1" k3="1"/>
<feColorMatrix type="matrix" values="0 0 0 0 0 0 0 0 0 0 0 0 0 0 0 0 0 0 0.62 0"/>
<feBlend mode="normal" in2="shape" result="effect1_innerShadow_5_124"/>
</filter>
<filter id="filter8_i_5_124" x="320.194" y="250.969" width="46.6292" height="12.8732" filterUnits="userSpaceOnUse" color-interpolation-filters="sRGB">
<feFlood flood-opacity="0" result="BackgroundImageFix"/>
<feBlend mode="normal" in="SourceGraphic" in2="BackgroundImageFix" result="shape"/>
<feColorMatrix in="SourceAlpha" type="matrix" values="0 0 0 0 0 0 0 0 0 0 0 0 0 0 0 0 0 0 127 0" result="hardAlpha"/>
<feOffset/>
<feGaussianBlur stdDeviation="1.5"/>
<feComposite in2="hardAlpha" operator="arithmetic" k2="-1" k3="1"/>
<feColorMatrix type="matrix" values="0 0 0 0 0 0 0 0 0 0 0 0 0 0 0 0 0 0 0.62 0"/>
<feBlend mode="normal" in2="shape" result="effect1_innerShadow_5_124"/>
</filter>
<filter id="filter9_i_5_124" x="320.194" y="260.057" width="46.6292" height="12.8732" filterUnits="userSpaceOnUse" color-interpolation-filters="sRGB">
<feFlood flood-opacity="0" result="BackgroundImageFix"/>
<feBlend mode="normal" in="SourceGraphic" in2="BackgroundImageFix" result="shape"/>
<feColorMatrix in="SourceAlpha" type="matrix" values="0 0 0 0 0 0 0 0 0 0 0 0 0 0 0 0 0 0 127 0" result="hardAlpha"/>
<feOffset/>
<feGaussianBlur stdDeviation="1.5"/>
<feComposite in2="hardAlpha" operator="arithmetic" k2="-1" k3="1"/>
<feColorMatrix type="matrix" values="0 0 0 0 0 0 0 0 0 0 0 0 0 0 0 0 0 0 0.62 0"/>
<feBlend mode="normal" in2="shape" result="effect1_innerShadow_5_124"/>
</filter>
<filter id="filter10_i_5_124" x="320.194" y="269.145" width="46.6292" height="12.8732" filterUnits="userSpaceOnUse" color-interpolation-filters="sRGB">
<feFlood flood-opacity="0" result="BackgroundImageFix"/>
<feBlend mode="normal" in="SourceGraphic" in2="BackgroundImageFix" result="shape"/>
<feColorMatrix in="SourceAlpha" type="matrix" values="0 0 0 0 0 0 0 0 0 0 0 0 0 0 0 0 0 0 127 0" result="hardAlpha"/>
<feOffset/>
<feGaussianBlur stdDeviation="1.5"/>
<feComposite in2="hardAlpha" operator="arithmetic" k2="-1" k3="1"/>
<feColorMatrix type="matrix" values="0 0 0 0 0 0 0 0 0 0 0 0 0 0 0 0 0 0 0.62 0"/>
<feBlend mode="normal" in2="shape" result="effect1_innerShadow_5_124"/>
</filter>
<filter id="filter11_d_5_124" x="319" y="176" width="29" height="29" filterUnits="userSpaceOnUse" color-interpolation-filters="sRGB">
<feFlood flood-opacity="0" result="BackgroundImageFix"/>
<feColorMatrix in="SourceAlpha" type="matrix" values="0 0 0 0 0 0 0 0 0 0 0 0 0 0 0 0 0 0 127 0" result="hardAlpha"/>
<feOffset dx="1" dy="1"/>
<feGaussianBlur stdDeviation="1"/>
<feComposite in2="hardAlpha" operator="out"/>
<feColorMatrix type="matrix" values="0 0 0 0 0 0 0 0 0 0 0 0 0 0 0 0 0 0 0.25 0"/>
<feBlend mode="normal" in2="BackgroundImageFix" result="effect1_dropShadow_5_124"/>
<feBlend mode="normal" in="SourceGraphic" in2="effect1_dropShadow_5_124" result="shape"/>
</filter>
<filter id="filter12_d_5_124" x="351" y="163" width="29" height="29" filterUnits="userSpaceOnUse" color-interpolation-filters="sRGB">
<feFlood flood-opacity="0" result="BackgroundImageFix"/>
<feColorMatrix in="SourceAlpha" type="matrix" values="0 0 0 0 0 0 0 0 0 0 0 0 0 0 0 0 0 0 127 0" result="hardAlpha"/>
<feOffset dx="1" dy="1"/>
<feGaussianBlur stdDeviation="1"/>
<feComposite in2="hardAlpha" operator="out"/>
<feColorMatrix type="matrix" values="0 0 0 0 0 0 0 0 0 0 0 0 0 0 0 0 0 0 0.25 0"/>
<feBlend mode="normal" in2="BackgroundImageFix" result="effect1_dropShadow_5_124"/>
<feBlend mode="normal" in="SourceGraphic" in2="effect1_dropShadow_5_124" result="shape"/>
</filter>
</defs>
</svg>
