<svg width="400" height="260" viewBox="0 0 400 260" fill="none" xmlns="http://www.w3.org/2000/svg">
<g clip-path="url(#clip0_1_19)">
<path d="M148.113 40.5227L174.186 38.3153C174.381 38.2987 174.549 38.35 174.691 38.4692C174.826 38.5233 174.935 38.6452 175.017 38.835C175.093 38.9597 175.106 39.1225 175.058 39.3233L173.977 46.2994L148.002 48.4985C147.806 48.5151 147.641 48.4963 147.505 48.4422C147.369 48.3882 147.266 48.3313 147.195 48.2717C147.119 48.147 147.043 48.0224 146.967 47.8977C146.956 47.7675 146.978 47.6345 147.032 47.4988C147.258 46.2994 147.454 45.1354 147.621 44.0066C147.788 42.8779 147.952 41.7166 148.113 40.5227ZM152.762 4.82125C155.496 4.58976 157.984 4.54307 160.225 4.68117C162.465 4.81927 164.525 5.13666 166.403 5.63334C168.275 6.06492 169.931 6.64598 171.37 7.37655C172.803 8.04201 173.984 8.82716 174.913 9.73202C175.195 9.97037 175.386 10.2821 175.484 10.6672C175.577 10.9872 175.583 11.4456 175.502 12.0426C175.292 13.4372 175.053 14.8672 174.783 16.3325C174.509 17.7327 174.269 19.1626 174.065 20.6224C173.855 22.0171 173.618 23.4796 173.354 25.01C172.117 25.1147 170.881 25.2194 169.644 25.3241C168.407 25.4289 167.17 25.5336 165.933 25.6383C165.607 25.6659 165.339 25.5903 165.127 25.4115C164.98 25.2272 164.926 24.9696 164.963 24.6386C165.243 23.3035 165.464 22.039 165.625 20.8452C165.787 19.6513 165.978 18.4221 166.198 17.1577C166.419 15.8932 166.659 14.4632 166.917 12.8678L169.373 17.479C167.515 15.6693 165.31 14.4135 162.759 13.7115C160.268 12.9389 157.102 12.7152 153.261 13.0404C150.266 13.294 147.562 13.8835 145.149 14.8091C142.736 15.7346 140.646 16.9934 138.879 18.5855C137.113 20.1775 135.669 22.1028 134.549 24.3614C133.429 26.6199 132.602 29.247 132.069 32.2427L128.84 52.1862C128.151 56.4408 128.267 59.7422 129.187 62.0902C130.107 64.4383 131.205 66.1812 132.482 67.3189C133.818 68.386 135.425 69.1679 137.303 69.6646C139.181 70.1612 141.454 70.2966 144.124 70.0706C146.728 69.8501 148.984 69.3968 150.893 68.7107C152.867 68.019 154.502 67.1921 155.797 66.2301C157.158 65.2625 158.185 64.2249 158.878 63.1171C159.271 60.789 159.612 58.6291 159.903 56.6376C160.258 54.6404 160.581 52.6461 160.871 50.6545C161.227 48.6574 161.568 46.4975 161.896 44.1749L171.075 43.3978L170.239 45.1405C169.707 48.9229 169.156 52.4774 168.585 55.8041C168.009 59.0657 167.465 62.3245 166.954 65.5805C166.825 66.3783 166.587 67.0541 166.241 67.608C165.894 68.1618 165.453 68.7565 164.916 69.392C163.784 70.7337 162.223 72.046 160.234 73.3291C158.304 74.5416 155.902 75.5973 153.027 76.4964C150.224 77.455 146.869 78.0996 142.963 78.4303C138.731 78.7886 134.998 78.449 131.763 77.4116C128.593 76.3686 125.994 74.7199 123.968 72.4655C122.001 70.1405 120.643 67.2722 119.895 63.8604C119.213 60.4432 119.24 56.5068 119.977 52.0514L123.287 31.9043C123.922 27.7854 125.057 24.1488 126.691 20.9943C128.385 17.7692 130.481 15.0346 132.98 12.7905C135.537 10.4758 138.465 8.65438 141.762 7.32616C145.059 5.99795 148.726 5.16298 152.762 4.82125ZM198.499 18.357C200.843 18.1586 202.956 18.3402 204.84 18.902C206.723 19.4638 208.406 20.3704 209.889 21.6217C211.431 22.8025 212.809 24.3578 214.021 26.2877L216.56 26.0728L215.31 34.5384C213.315 31.8879 211.113 29.8779 208.702 28.5084C206.351 27.0683 203.645 26.4778 200.585 26.7368C198.567 26.9077 196.778 27.4526 195.216 28.3716C193.714 29.22 192.449 30.5401 191.421 32.3319C190.392 34.1238 189.644 36.5148 189.176 39.5049L187.012 52.277C186.581 54.9361 186.541 57.1689 186.89 58.9751C187.305 60.7759 188.08 62.1855 189.215 63.2041C189.916 63.7348 190.736 64.1244 191.675 64.3727C192.679 64.6156 193.767 64.6874 194.938 64.5882C197.022 64.4118 199.007 63.8503 200.894 62.9038C202.775 61.8921 204.702 60.2537 206.674 57.9886C208.711 55.718 210.847 52.685 213.083 48.8895L210.968 62.2475L208.625 62.4459C207.428 64.5798 206.044 66.4345 204.473 68.01C202.896 69.5204 201.162 70.7163 199.269 71.5978C197.377 72.4793 195.226 73.0219 192.818 73.2259C190.083 73.4574 187.633 73.1731 185.467 72.3729C183.361 71.5022 181.642 70.1725 180.311 68.3838C179.044 66.5895 178.17 64.4014 177.689 61.8195C177.274 59.232 177.319 56.2777 177.824 52.9565L180.02 39.3949C180.628 35.7372 181.479 32.6164 182.571 30.0323C183.729 27.4428 185.123 25.3249 186.754 23.6788C188.385 22.0327 190.182 20.7987 192.145 19.9768C194.102 19.0898 196.22 18.5499 198.499 18.357ZM216.851 17.8851C218.153 17.7749 219.455 17.6646 220.757 17.5544C222.124 17.4387 223.491 17.3229 224.858 17.2072C225.053 17.1906 225.222 17.242 225.363 17.3611C225.564 17.4097 225.672 17.5316 225.689 17.7269C225.765 17.8516 225.781 18.0469 225.738 18.3128C225.066 22.7628 224.334 27.2833 223.543 31.8744C222.811 36.3949 222.076 40.8829 221.339 45.3384C220.601 49.7938 219.883 54.0837 219.183 58.2081C218.973 59.6028 219.056 60.5793 219.431 61.1376C219.871 61.6905 220.677 61.9173 221.849 61.8181C222.239 61.785 222.565 61.7574 222.825 61.7354C223.151 61.7078 223.444 61.683 223.704 61.661L225.169 61.537C224.943 62.7363 224.719 63.9683 224.498 65.2327C224.343 66.4917 224.149 67.6883 223.917 68.8226C223.874 69.0885 223.76 69.2948 223.576 69.4415C223.457 69.5828 223.234 69.6671 222.909 69.6947C222.583 69.7223 222.063 69.7664 221.347 69.827C220.63 69.8876 219.947 69.9455 219.296 70.0006C217.017 70.1935 215.121 69.8623 213.606 69.0071C212.091 68.1518 211.028 66.8321 210.418 65.0479C209.808 63.2636 209.727 61.1396 210.174 58.6758C210.728 55.1538 211.285 51.6644 211.845 48.2075C212.399 44.6855 212.956 41.1961 213.516 37.7392C214.135 34.2117 214.724 30.7196 215.284 27.2627C215.467 26.3292 215.618 25.3985 215.736 24.4706C215.854 23.5427 216 22.5469 216.172 21.4832C216.409 20.414 216.635 19.2147 216.851 17.8851ZM239.663 15.9537C240.183 15.9096 240.737 15.8628 241.323 15.8132C241.974 15.7581 242.592 15.7057 243.178 15.6561C243.829 15.601 244.448 15.5486 245.033 15.499C245.619 15.4494 246.173 15.4026 246.694 15.3585C246.694 15.3585 246.74 15.9118 246.834 17.0185C246.922 18.0601 246.962 19.3026 246.953 20.7458C247.004 22.1184 247.043 23.3608 247.072 24.473C247.16 25.5147 247.207 26.068 247.212 26.1331C246.653 29.59 246.01 33.6112 245.283 38.1969C244.551 42.7174 243.747 47.5391 242.869 52.6621C242.056 57.7796 241.217 62.9649 240.35 68.218C239.764 68.2676 239.113 68.3228 238.397 68.3834C237.681 68.444 236.965 68.5046 236.249 68.5653C235.533 68.6259 234.817 68.6865 234.101 68.7472C233.385 68.8078 232.734 68.8629 232.148 68.9125C232.017 68.9235 231.884 68.902 231.749 68.8479C231.613 68.7939 231.51 68.737 231.439 68.6774C231.363 68.5527 231.287 68.4281 231.211 68.3034C231.2 68.1732 231.221 68.0402 231.276 67.9045C231.996 63.2538 232.717 58.603 233.438 53.9523C234.224 49.2961 235.01 44.6398 235.796 39.9836C236.577 35.2622 237.327 30.5762 238.048 25.9255C238.398 23.8633 238.699 22.0019 238.952 20.3413C239.265 18.6101 239.502 17.1476 239.663 15.9537ZM264.277 12.7879C266.1 12.6335 267.723 12.824 269.145 13.3593C270.562 13.8294 271.716 14.6824 272.607 15.9183C273.558 17.0836 274.184 18.6697 274.485 20.6768C274.781 22.6188 274.719 24.9845 274.299 27.7738C274.09 29.1685 273.761 31.0977 273.314 33.5616C272.927 35.9548 272.48 38.812 271.974 42.1331C271.463 45.3892 270.885 49.0116 270.239 53.0003C269.593 56.989 268.875 61.2789 268.083 65.8701C267.432 65.9252 266.586 65.9968 265.544 66.085C264.503 66.1732 263.461 66.2614 262.419 66.3496C261.378 66.4378 260.499 66.5122 259.783 66.5728C259.587 66.5893 259.422 66.5706 259.286 66.5165C259.145 66.3973 259.036 66.2754 258.96 66.1507C258.879 65.9609 258.862 65.7656 258.911 65.5648C259.416 62.2436 259.925 58.955 260.436 55.6989C261.012 52.4374 261.534 49.3115 262.002 46.3214C262.53 43.2606 263.009 40.4007 263.44 37.7415C263.865 35.0173 264.249 32.5915 264.594 30.4642C265.046 28.0655 265.125 26.2885 264.831 25.1332C264.531 23.9128 263.971 23.1079 263.151 22.7183C262.331 22.3287 261.27 22.1891 259.968 22.2993C258.406 22.4316 256.787 23.0604 255.112 24.1857C253.502 25.3055 251.833 26.8893 250.105 28.937C248.377 30.9848 246.549 33.4016 244.621 36.1875L244.508 24.395L248.707 24.0395C250.158 21.8185 251.702 19.9175 253.338 18.3365C254.969 16.6904 256.696 15.3968 258.518 14.4557C260.339 13.5147 262.259 12.9587 264.277 12.7879ZM291.717 10.4647C293.67 10.2993 295.393 10.5141 296.886 11.1089C298.379 11.7038 299.639 12.6462 300.666 13.9361C301.693 15.2261 302.357 16.8746 302.658 18.8817C303.024 20.8833 303.025 23.2109 302.659 25.8645C302.352 27.6608 301.962 30.0214 301.489 32.9465C301.015 35.8715 300.469 39.0978 299.849 42.6253C299.29 46.0822 298.708 49.672 298.106 53.3948C298.068 53.7258 298.06 54.0215 298.082 54.2819C298.104 54.5423 298.189 54.7647 298.336 54.9489C298.547 55.1277 298.754 55.2414 298.955 55.2899C299.22 55.333 299.516 55.3407 299.842 55.3132C300.102 55.2911 300.33 55.2718 300.525 55.2553C300.721 55.2388 300.916 55.2222 301.111 55.2057L302.185 55.1147C302.024 56.3086 301.828 57.4727 301.596 58.6069C301.429 59.7357 301.262 60.8644 301.096 61.9932C301.064 62.3893 300.926 62.696 300.682 62.9134C300.432 63.0656 300.145 63.1555 299.82 63.1831C299.429 63.2162 298.908 63.2603 298.257 63.3154C297.671 63.365 297.085 63.4146 296.499 63.4642C294.416 63.6406 292.72 63.358 291.412 62.6164C290.168 61.8693 289.326 60.826 288.885 59.4864C288.438 58.0818 288.365 56.4487 288.667 54.5873C289.108 52.0584 289.52 49.5648 289.902 47.1065C290.284 44.6481 290.674 42.2875 291.073 40.0244C291.466 37.6963 291.84 35.5337 292.195 33.5366C292.545 31.4744 292.849 29.6456 293.108 28.0501C293.581 25.125 293.37 23.012 292.473 21.7111C291.57 20.345 289.98 19.7584 287.701 19.9513C286.139 20.0836 284.55 20.6771 282.934 21.7318C281.313 22.7214 279.636 24.2075 277.903 26.1902C276.163 28.1077 274.27 30.5301 272.223 33.4572L272.436 22.0305L276.44 21.6916C277.755 19.4165 279.166 17.4939 280.672 15.9239C282.179 14.3539 283.81 13.1012 285.567 12.1656C287.389 11.2246 289.439 10.6576 291.717 10.4647ZM337.575 6.58217C340.895 6.30107 343.801 6.54681 346.292 7.31939C348.849 8.08645 350.944 9.22035 352.58 10.7211C354.28 12.2163 355.451 14.0514 356.094 16.2262C356.732 18.3359 356.827 20.6227 356.38 23.0865L356.114 24.5844C355.64 27.5094 354.604 29.9903 353.006 32.027C351.409 34.0638 349.314 35.6508 346.722 36.7882C344.195 37.9201 341.174 38.6348 337.658 38.9325C336.226 39.0537 334.468 39.2025 332.385 39.3789C330.367 39.5498 328.154 39.7372 325.745 39.9411C323.336 40.145 320.895 40.3517 318.421 40.5612L314.752 41.3636L315.451 34.5182C318.185 34.2867 320.789 34.0663 323.263 33.8568C325.802 33.6419 328.21 33.4379 330.489 33.245C332.833 33.0466 335.046 32.8592 337.129 32.6828C340.124 32.4293 342.515 31.6367 344.304 30.305C346.152 28.9028 347.262 26.9074 347.633 24.3189C347.94 22.5226 347.903 20.9193 347.521 19.5092C347.139 18.099 346.422 16.9796 345.368 16.1508C344.515 15.3707 343.386 14.8106 341.98 14.4707C340.574 14.1307 338.862 14.0462 336.844 14.217C334.11 14.4485 331.678 15.1462 329.547 16.3101C327.481 17.4685 325.723 19.1582 324.272 21.3792C322.886 23.5947 321.916 26.4634 321.361 29.9854L319.626 40.8526C319.179 43.3164 319.16 45.4161 319.569 47.1518C319.978 48.8875 320.751 50.2646 321.886 51.2831C323.027 52.3667 324.531 53.0917 326.398 53.4582C328.265 53.8247 330.533 53.8949 333.202 53.669C335.61 53.465 337.748 53.1529 339.614 52.7327C341.479 52.3125 343.204 51.773 344.787 51.1145C346.436 50.4503 348.171 49.6478 349.993 48.7067L351.458 48.5827C351.28 49.5813 351.078 50.6802 350.852 51.8796C350.62 53.0139 350.418 54.1128 350.246 55.1765C350.191 55.3122 350.137 55.4479 350.083 55.5836C350.029 55.7193 349.943 55.8578 349.823 55.999C349.168 56.7757 348.054 57.5585 346.482 58.3473C344.904 59.071 342.957 59.6948 340.641 60.2187C338.395 60.8022 335.905 61.2098 333.171 61.4412C329.265 61.7719 325.806 61.5731 322.794 60.8446C319.776 60.051 317.273 58.7549 315.285 56.9562C313.297 55.1575 311.924 52.8805 311.166 50.1253C310.408 47.3701 310.301 44.1664 310.844 40.5142L312.613 30.0377C313.264 26.1141 314.355 22.7433 315.887 19.9254C317.413 17.0423 319.279 14.6879 321.485 12.8619C323.751 10.9654 326.25 9.508 328.983 8.48979C331.716 7.47158 334.58 6.83571 337.575 6.58217Z" fill="#3F3F3F"/>
<path d="M82.5 92.5C87.7 54.1 122 28 138 14M162 67C164.5 74.5 189 72.5 192 65.5" stroke="#3F3F3F" stroke-width="8"/>
<path d="M220.5 66C230.1 64.8 234 64 234.5 64" stroke="#3F3F3F" stroke-width="8"/>
<path d="M300 59C310 58 315.5 55.3333 316.5 53" stroke="#3F3F3F" stroke-width="8"/>
<rect x="25" y="89" width="350" height="166" rx="5" fill="#D8D7DD"/>
<rect x="38" y="117" width="324" height="128" rx="5" fill="#3F3F3F"/>
<path d="M150 117H250V129C250 131.761 247.761 134 245 134H155C152.239 134 150 131.761 150 129V117Z" fill="#949590"/>
<path d="M150 145C150 142.239 152.239 140 155 140H245C247.761 140 250 142.239 250 145V152C250 154.761 247.761 157 245 157H155C152.239 157 150 154.761 150 152V145Z" fill="#949590"/>
<path d="M150 169C150 166.239 152.239 164 155 164H245C247.761 164 250 166.239 250 169V176C250 178.761 247.761 181 245 181H155C152.239 181 150 178.761 150 176V169Z" fill="#949590"/>
<path d="M150 235C150 232.239 152.239 230 155 230H245C247.761 230 250 232.239 250 235V245H150V235Z" fill="#949590"/>
<rect x="150" y="189" width="100" height="31" rx="5" fill="#D6D4DB"/>
<rect x="159" y="200" width="33" height="9" rx="4.5" fill="#2C2C2C"/>
<rect x="159" y="200" width="33" height="9" rx="4.5" fill="#2C2C2C"/>
<rect x="159" y="200" width="33" height="9" rx="4.5" fill="#2C2C2C"/>
<rect x="207" y="200" width="33" height="9" rx="4.5" fill="#2C2C2C"/>
<rect x="207" y="200" width="33" height="9" rx="4.5" fill="#2C2C2C"/>
<rect x="207" y="200" width="33" height="9" rx="4.5" fill="#2C2C2C"/>
<path d="M80 139C80 136.239 82.2386 134 85 134H105C107.761 134 110 136.239 110 139V164H80V139Z" fill="#D6D4DB"/>
<path d="M55 194C52.2386 194 50 191.761 50 189V169C50 166.239 52.2386 164 55 164H80V194H55Z" fill="#D6D4DB"/>
<path d="M135 164C137.761 164 140 166.239 140 169V189C140 191.761 137.761 194 135 194H110V164H135Z" fill="#D6D4DB"/>
<path d="M110 219C110 221.761 107.761 224 105 224H85C82.2386 224 80 221.761 80 219V194H110V219Z" fill="#D6D4DB"/>
<rect x="80" y="164" width="30" height="30" fill="#D6D4DB"/>
<path d="M82 141C82 138.239 84.2386 136 87 136H103C105.761 136 108 138.239 108 141V166H82V141Z" fill="#2C2C2C"/>
<path d="M57 192C54.2386 192 52 189.761 52 187V171C52 168.239 54.2386 166 57 166H82V192H57Z" fill="#2C2C2C"/>
<path d="M133 166C135.761 166 138 168.239 138 171V187C138 189.761 135.761 192 133 192H108V166H133Z" fill="#2C2C2C"/>
<path d="M108 217C108 219.761 105.761 222 103 222H87C84.2386 222 82 219.761 82 217V192H108V217Z" fill="#2C2C2C"/>
<rect x="57" y="166" width="75" height="26" fill="#2C2C2C"/>
<rect x="82" y="217" width="75" height="26" transform="rotate(-90 82 217)" fill="#2C2C2C"/>
<rect x="266" y="189" width="32" height="32" rx="5" fill="#D6D4DB"/>
<circle cx="282" cy="205" r="13" fill="#BF4846"/>
<rect x="308" y="189" width="32" height="32" rx="5" fill="#D6D4DB"/>
<circle cx="324" cy="205" r="13" fill="#BF4846"/>
<path d="M212.048 178.192C211.472 178.192 210.965 178.133 210.528 178.016C210.091 177.899 209.728 177.728 209.44 177.504C209.152 177.28 208.933 177.013 208.784 176.704C208.635 176.395 208.56 176.043 208.56 175.648C208.56 175.595 208.56 175.547 208.56 175.504C208.56 175.451 208.565 175.408 208.576 175.376H209.968C209.957 175.419 209.952 175.456 209.952 175.488C209.952 175.52 209.952 175.552 209.952 175.584C209.963 175.957 210.059 176.251 210.24 176.464C210.432 176.677 210.693 176.827 211.024 176.912C211.355 176.997 211.723 177.04 212.128 177.04C212.48 177.04 212.805 176.997 213.104 176.912C213.403 176.816 213.637 176.677 213.808 176.496C213.989 176.304 214.08 176.064 214.08 175.776C214.08 175.424 213.963 175.157 213.728 174.976C213.504 174.784 213.205 174.635 212.832 174.528C212.459 174.421 212.069 174.309 211.664 174.192C211.323 174.096 210.981 173.989 210.64 173.872C210.299 173.755 209.989 173.611 209.712 173.44C209.445 173.269 209.227 173.051 209.056 172.784C208.896 172.507 208.816 172.16 208.816 171.744C208.816 171.371 208.891 171.04 209.04 170.752C209.2 170.464 209.424 170.219 209.712 170.016C210 169.813 210.347 169.664 210.752 169.568C211.168 169.461 211.627 169.408 212.128 169.408C212.661 169.408 213.125 169.467 213.52 169.584C213.925 169.701 214.261 169.867 214.528 170.08C214.795 170.293 214.992 170.539 215.12 170.816C215.248 171.083 215.312 171.371 215.312 171.68C215.312 171.744 215.312 171.808 215.312 171.872C215.312 171.925 215.307 171.968 215.296 172H213.92V171.824C213.92 171.611 213.861 171.408 213.744 171.216C213.637 171.013 213.445 170.853 213.168 170.736C212.901 170.608 212.528 170.544 212.048 170.544C211.739 170.544 211.472 170.571 211.248 170.624C211.024 170.667 210.837 170.741 210.688 170.848C210.539 170.944 210.427 171.061 210.352 171.2C210.277 171.328 210.24 171.477 210.24 171.648C210.24 171.925 210.331 172.139 210.512 172.288C210.693 172.437 210.933 172.56 211.232 172.656C211.541 172.752 211.872 172.859 212.224 172.976C212.597 173.083 212.976 173.195 213.36 173.312C213.755 173.419 214.112 173.557 214.432 173.728C214.763 173.899 215.024 174.133 215.216 174.432C215.419 174.72 215.52 175.104 215.52 175.584C215.52 176.032 215.435 176.421 215.264 176.752C215.093 177.083 214.848 177.355 214.528 177.568C214.219 177.781 213.851 177.936 213.424 178.032C213.008 178.139 212.549 178.192 212.048 178.192ZM219.228 178.192C218.791 178.192 218.45 178.112 218.204 177.952C217.959 177.781 217.783 177.563 217.676 177.296C217.57 177.019 217.516 176.725 217.516 176.416V170.768H216.428V169.584H217.548L217.804 167.232H218.924V169.584H220.508V170.768H218.924V176.208C218.924 176.475 218.972 176.677 219.068 176.816C219.164 176.944 219.346 177.008 219.612 177.008H220.508V177.936C220.402 177.989 220.274 178.032 220.124 178.064C219.975 178.096 219.82 178.123 219.66 178.144C219.511 178.176 219.367 178.192 219.228 178.192ZM224.122 178.192C223.813 178.192 223.504 178.155 223.194 178.08C222.885 178.005 222.597 177.883 222.33 177.712C222.064 177.541 221.85 177.307 221.69 177.008C221.53 176.699 221.45 176.315 221.45 175.856C221.45 175.28 221.589 174.805 221.866 174.432C222.144 174.059 222.528 173.771 223.018 173.568C223.52 173.355 224.112 173.211 224.794 173.136C225.477 173.051 226.218 173.008 227.018 173.008V172.048C227.018 171.739 226.965 171.472 226.858 171.248C226.752 171.024 226.56 170.853 226.282 170.736C226.016 170.608 225.632 170.544 225.13 170.544C224.65 170.544 224.266 170.608 223.978 170.736C223.701 170.853 223.504 171.008 223.386 171.2C223.28 171.392 223.226 171.605 223.226 171.84V172.08H221.866C221.856 172.027 221.85 171.973 221.85 171.92C221.85 171.867 221.85 171.803 221.85 171.728C221.85 171.216 221.989 170.789 222.266 170.448C222.554 170.096 222.954 169.835 223.466 169.664C223.978 169.483 224.565 169.392 225.226 169.392C225.93 169.392 226.517 169.493 226.986 169.696C227.466 169.899 227.824 170.187 228.058 170.56C228.304 170.933 228.426 171.381 228.426 171.904V176.464C228.426 176.667 228.474 176.811 228.57 176.896C228.666 176.971 228.784 177.008 228.922 177.008H229.546V177.936C229.397 178 229.232 178.053 229.05 178.096C228.869 178.149 228.661 178.176 228.426 178.176C228.149 178.176 227.92 178.117 227.738 178C227.557 177.893 227.418 177.744 227.322 177.552C227.226 177.349 227.162 177.125 227.13 176.88H227.018C226.826 177.147 226.581 177.381 226.282 177.584C225.994 177.776 225.669 177.925 225.306 178.032C224.944 178.139 224.549 178.192 224.122 178.192ZM224.474 177.008C224.816 177.008 225.136 176.955 225.434 176.848C225.744 176.741 226.016 176.592 226.25 176.4C226.485 176.197 226.672 175.957 226.81 175.68C226.949 175.403 227.018 175.099 227.018 174.768V174.064C226.154 174.064 225.418 174.112 224.81 174.208C224.202 174.304 223.733 174.475 223.402 174.72C223.082 174.965 222.922 175.312 222.922 175.76C222.922 176.048 222.986 176.283 223.114 176.464C223.242 176.645 223.424 176.784 223.658 176.88C223.893 176.965 224.165 177.008 224.474 177.008ZM230.729 178V169.584H231.865L231.993 170.976H232.105C232.19 170.709 232.308 170.459 232.457 170.224C232.606 169.979 232.809 169.781 233.065 169.632C233.321 169.472 233.636 169.392 234.009 169.392C234.169 169.392 234.313 169.408 234.441 169.44C234.58 169.461 234.681 169.488 234.745 169.52V170.816H234.217C233.854 170.816 233.54 170.88 233.273 171.008C233.017 171.125 232.804 171.296 232.633 171.52C232.462 171.744 232.334 172.011 232.249 172.32C232.174 172.629 232.137 172.96 232.137 173.312V178H230.729ZM238.01 178.192C237.572 178.192 237.231 178.112 236.986 177.952C236.74 177.781 236.564 177.563 236.458 177.296C236.351 177.019 236.298 176.725 236.298 176.416V170.768H235.21V169.584H236.33L236.586 167.232H237.706V169.584H239.29V170.768H237.706V176.208C237.706 176.475 237.754 176.677 237.85 176.816C237.946 176.944 238.127 177.008 238.394 177.008H239.29V177.936C239.183 177.989 239.055 178.032 238.906 178.064C238.756 178.096 238.602 178.123 238.442 178.144C238.292 178.176 238.148 178.192 238.01 178.192Z" fill="#BF4846"/>
<path d="M292.376 235V224.024H298.04C298.669 224.024 299.213 224.136 299.672 224.36C300.131 224.573 300.483 224.877 300.728 225.272C300.984 225.667 301.112 226.136 301.112 226.68C301.112 227.096 301.037 227.48 300.888 227.832C300.739 228.184 300.531 228.477 300.264 228.712C299.997 228.947 299.693 229.123 299.352 229.24V229.304C299.736 229.389 300.083 229.544 300.392 229.768C300.701 229.992 300.947 230.291 301.128 230.664C301.32 231.027 301.416 231.475 301.416 232.008C301.416 232.723 301.267 233.299 300.968 233.736C300.669 234.173 300.269 234.493 299.768 234.696C299.267 234.899 298.691 235 298.04 235H292.376ZM293.896 233.688H298.024C298.568 233.688 299.011 233.549 299.352 233.272C299.693 232.984 299.864 232.509 299.864 231.848C299.864 231.443 299.789 231.107 299.64 230.84C299.491 230.563 299.272 230.36 298.984 230.232C298.696 230.093 298.333 230.024 297.896 230.024H293.896V233.688ZM293.896 228.728H297.752C298.115 228.728 298.429 228.659 298.696 228.52C298.963 228.371 299.171 228.168 299.32 227.912C299.48 227.645 299.56 227.347 299.56 227.016C299.56 226.44 299.405 226.019 299.096 225.752C298.787 225.475 298.376 225.336 297.864 225.336H293.896V228.728Z" fill="#BF4846"/>
<path d="M337.112 235L341.448 224.024H343.448L347.8 235H346.152L345.08 232.28H339.736L338.68 235H337.112ZM340.232 230.984H344.568L343.24 227.544C343.208 227.448 343.16 227.315 343.096 227.144C343.032 226.973 342.963 226.787 342.888 226.584C342.813 226.371 342.739 226.157 342.664 225.944C342.589 225.72 342.52 225.517 342.456 225.336H342.36C342.285 225.549 342.2 225.795 342.104 226.072C342.008 226.349 341.912 226.621 341.816 226.888C341.72 227.144 341.64 227.363 341.576 227.544L340.232 230.984Z" fill="#BF4846"/>
<path d="M252.09 158V139.135H262.43C263.823 139.135 264.978 139.382 265.895 139.877C266.83 140.372 267.527 141.069 267.985 141.967C268.443 142.847 268.673 143.865 268.673 145.02C268.673 146.248 268.398 147.339 267.848 148.292C267.298 149.227 266.5 149.942 265.455 150.437L269.305 158H264.768L261.44 151.125H256.188V158H252.09ZM256.188 147.88H261.88C262.705 147.88 263.347 147.632 263.805 147.137C264.263 146.624 264.493 145.937 264.493 145.075C264.493 144.525 264.392 144.057 264.19 143.672C263.988 143.269 263.695 142.967 263.31 142.765C262.925 142.563 262.448 142.463 261.88 142.463H256.188V147.88ZM272.178 158V139.135H287.248V142.49H276.303V146.697H285.983V150.025H276.303V154.617H287.413V158H272.178ZM296.01 158L289.19 139.135H293.617L297.687 151.18C297.761 151.382 297.843 151.629 297.935 151.922C298.027 152.197 298.118 152.472 298.21 152.747C298.302 153.022 298.375 153.27 298.43 153.49H298.595C298.668 153.288 298.742 153.059 298.815 152.802C298.907 152.527 298.989 152.252 299.062 151.977C299.154 151.702 299.237 151.446 299.31 151.207L303.38 139.135H307.642L300.795 158H296.01ZM310.044 158V139.135H314.142V158H310.044ZM318.316 158V139.135H333.386V142.49H322.441V146.697H332.121V150.025H322.441V154.617H333.551V158H318.316ZM340.195 158L335.245 139.135H339.59L342.34 150.382C342.395 150.547 342.45 150.795 342.505 151.125C342.56 151.437 342.615 151.767 342.67 152.115C342.725 152.463 342.771 152.775 342.808 153.05H342.945C342.982 152.848 343.009 152.619 343.028 152.362C343.064 152.106 343.101 151.858 343.138 151.62C343.193 151.363 343.238 151.125 343.275 150.905C343.33 150.685 343.367 150.511 343.385 150.382L345.943 139.135H350.838L353.45 150.382C353.505 150.566 353.56 150.813 353.615 151.125C353.67 151.437 353.725 151.767 353.78 152.115C353.835 152.463 353.881 152.775 353.918 153.05H354.055C354.092 152.848 354.128 152.628 354.165 152.39C354.22 152.152 354.266 151.913 354.303 151.675C354.358 151.418 354.413 151.18 354.468 150.96C354.523 150.74 354.568 150.547 354.605 150.382L357.328 139.135H361.26L356.283 158H351.608L348.83 146.395C348.775 146.138 348.711 145.845 348.638 145.515C348.583 145.167 348.528 144.827 348.473 144.497C348.418 144.167 348.372 143.874 348.335 143.617H348.225C348.188 143.874 348.143 144.177 348.088 144.525C348.051 144.873 347.996 145.212 347.923 145.542C347.868 145.872 347.813 146.157 347.758 146.395L345.008 158H340.195Z" fill="#BF4846"/>
<path d="M163.048 178.192C162.472 178.192 161.965 178.133 161.528 178.016C161.091 177.899 160.728 177.728 160.44 177.504C160.152 177.28 159.933 177.013 159.784 176.704C159.635 176.395 159.56 176.043 159.56 175.648C159.56 175.595 159.56 175.547 159.56 175.504C159.56 175.451 159.565 175.408 159.576 175.376H160.968C160.957 175.419 160.952 175.456 160.952 175.488C160.952 175.52 160.952 175.552 160.952 175.584C160.963 175.957 161.059 176.251 161.24 176.464C161.432 176.677 161.693 176.827 162.024 176.912C162.355 176.997 162.723 177.04 163.128 177.04C163.48 177.04 163.805 176.997 164.104 176.912C164.403 176.816 164.637 176.677 164.808 176.496C164.989 176.304 165.08 176.064 165.08 175.776C165.08 175.424 164.963 175.157 164.728 174.976C164.504 174.784 164.205 174.635 163.832 174.528C163.459 174.421 163.069 174.309 162.664 174.192C162.323 174.096 161.981 173.989 161.64 173.872C161.299 173.755 160.989 173.611 160.712 173.44C160.445 173.269 160.227 173.051 160.056 172.784C159.896 172.507 159.816 172.16 159.816 171.744C159.816 171.371 159.891 171.04 160.04 170.752C160.2 170.464 160.424 170.219 160.712 170.016C161 169.813 161.347 169.664 161.752 169.568C162.168 169.461 162.627 169.408 163.128 169.408C163.661 169.408 164.125 169.467 164.52 169.584C164.925 169.701 165.261 169.867 165.528 170.08C165.795 170.293 165.992 170.539 166.12 170.816C166.248 171.083 166.312 171.371 166.312 171.68C166.312 171.744 166.312 171.808 166.312 171.872C166.312 171.925 166.307 171.968 166.296 172H164.92V171.824C164.92 171.611 164.861 171.408 164.744 171.216C164.637 171.013 164.445 170.853 164.168 170.736C163.901 170.608 163.528 170.544 163.048 170.544C162.739 170.544 162.472 170.571 162.248 170.624C162.024 170.667 161.837 170.741 161.688 170.848C161.539 170.944 161.427 171.061 161.352 171.2C161.277 171.328 161.24 171.477 161.24 171.648C161.24 171.925 161.331 172.139 161.512 172.288C161.693 172.437 161.933 172.56 162.232 172.656C162.541 172.752 162.872 172.859 163.224 172.976C163.597 173.083 163.976 173.195 164.36 173.312C164.755 173.419 165.112 173.557 165.432 173.728C165.763 173.899 166.024 174.133 166.216 174.432C166.419 174.72 166.52 175.104 166.52 175.584C166.52 176.032 166.435 176.421 166.264 176.752C166.093 177.083 165.848 177.355 165.528 177.568C165.219 177.781 164.851 177.936 164.424 178.032C164.008 178.139 163.549 178.192 163.048 178.192ZM170.82 178.192C169.988 178.192 169.284 178.037 168.708 177.728C168.143 177.408 167.711 176.923 167.412 176.272C167.124 175.621 166.98 174.795 166.98 173.792C166.98 172.779 167.124 171.952 167.412 171.312C167.711 170.661 168.148 170.181 168.724 169.872C169.3 169.552 170.02 169.392 170.884 169.392C171.674 169.392 172.335 169.547 172.868 169.856C173.402 170.155 173.802 170.608 174.068 171.216C174.346 171.813 174.484 172.565 174.484 173.472V174.144H168.436C168.458 174.816 168.554 175.371 168.724 175.808C168.906 176.235 169.172 176.549 169.524 176.752C169.876 176.944 170.319 177.04 170.852 177.04C171.215 177.04 171.53 176.997 171.796 176.912C172.074 176.816 172.303 176.683 172.484 176.512C172.676 176.341 172.82 176.139 172.916 175.904C173.012 175.669 173.066 175.413 173.076 175.136H174.452C174.442 175.584 174.356 176 174.196 176.384C174.036 176.757 173.802 177.077 173.492 177.344C173.183 177.611 172.804 177.819 172.356 177.968C171.908 178.117 171.396 178.192 170.82 178.192ZM168.468 173.088H173.028C173.028 172.619 172.975 172.224 172.868 171.904C172.762 171.584 172.607 171.323 172.404 171.12C172.212 170.917 171.983 170.773 171.716 170.688C171.46 170.592 171.167 170.544 170.836 170.544C170.346 170.544 169.93 170.635 169.588 170.816C169.247 170.997 168.986 171.275 168.804 171.648C168.623 172.021 168.511 172.501 168.468 173.088ZM175.426 178V166.432H176.834V178H175.426ZM181.58 178.192C180.748 178.192 180.044 178.037 179.468 177.728C178.902 177.408 178.47 176.923 178.172 176.272C177.884 175.621 177.74 174.795 177.74 173.792C177.74 172.779 177.884 171.952 178.172 171.312C178.47 170.661 178.908 170.181 179.484 169.872C180.06 169.552 180.78 169.392 181.644 169.392C182.433 169.392 183.094 169.547 183.628 169.856C184.161 170.155 184.561 170.608 184.828 171.216C185.105 171.813 185.244 172.565 185.244 173.472V174.144H179.196C179.217 174.816 179.313 175.371 179.484 175.808C179.665 176.235 179.932 176.549 180.284 176.752C180.636 176.944 181.078 177.04 181.612 177.04C181.974 177.04 182.289 176.997 182.556 176.912C182.833 176.816 183.062 176.683 183.244 176.512C183.436 176.341 183.58 176.139 183.676 175.904C183.772 175.669 183.825 175.413 183.836 175.136H185.212C185.201 175.584 185.116 176 184.956 176.384C184.796 176.757 184.561 177.077 184.252 177.344C183.942 177.611 183.564 177.819 183.116 177.968C182.668 178.117 182.156 178.192 181.58 178.192ZM179.228 173.088H183.788C183.788 172.619 183.734 172.224 183.628 171.904C183.521 171.584 183.366 171.323 183.164 171.12C182.972 170.917 182.742 170.773 182.476 170.688C182.22 170.592 181.926 170.544 181.596 170.544C181.105 170.544 180.689 170.635 180.348 170.816C180.006 170.997 179.745 171.275 179.564 171.648C179.382 172.021 179.27 172.501 179.228 173.088ZM189.385 178.192C188.575 178.192 187.892 178.037 187.337 177.728C186.793 177.408 186.377 176.923 186.089 176.272C185.812 175.611 185.673 174.784 185.673 173.792C185.673 172.8 185.812 171.979 186.089 171.328C186.377 170.677 186.799 170.192 187.353 169.872C187.919 169.552 188.612 169.392 189.433 169.392C190.009 169.392 190.505 169.467 190.921 169.616C191.348 169.765 191.7 169.984 191.977 170.272C192.255 170.56 192.457 170.907 192.585 171.312C192.724 171.717 192.793 172.181 192.793 172.704H191.369C191.369 172.213 191.3 171.813 191.161 171.504C191.033 171.184 190.825 170.949 190.537 170.8C190.249 170.64 189.871 170.56 189.401 170.56C188.932 170.56 188.527 170.667 188.185 170.88C187.844 171.083 187.583 171.408 187.401 171.856C187.22 172.304 187.129 172.896 187.129 173.632V173.968C187.129 174.661 187.215 175.237 187.385 175.696C187.567 176.155 187.828 176.491 188.169 176.704C188.511 176.917 188.927 177.024 189.417 177.024C189.897 177.024 190.281 176.939 190.569 176.768C190.868 176.597 191.081 176.352 191.209 176.032C191.348 175.712 191.417 175.328 191.417 174.88H192.793C192.793 175.349 192.724 175.787 192.585 176.192C192.457 176.597 192.255 176.949 191.977 177.248C191.7 177.547 191.348 177.781 190.921 177.952C190.495 178.112 189.983 178.192 189.385 178.192ZM195.65 178.192C195.213 178.192 194.871 178.112 194.626 177.952C194.381 177.781 194.205 177.563 194.098 177.296C193.991 177.019 193.938 176.725 193.938 176.416V170.768H192.85V169.584H193.97L194.226 167.232H195.346V169.584H196.93V170.768H195.346V176.208C195.346 176.475 195.394 176.677 195.49 176.816C195.586 176.944 195.767 177.008 196.034 177.008H196.93V177.936C196.823 177.989 196.695 178.032 196.546 178.064C196.397 178.096 196.242 178.123 196.082 178.144C195.933 178.176 195.789 178.192 195.65 178.192Z" fill="#BF4846"/>
<rect x="74" y="89" width="17" height="8" fill="#ACABAF"/>
</g>
<defs>
<clipPath id="clip0_1_19">
<rect width="400" height="260" fill="white"/>
</clipPath>
</defs>
</svg>
