<svg width="400" height="400" viewBox="0 0 400 400" fill="none" xmlns="http://www.w3.org/2000/svg">
<path d="M12.089 85.1385C12.089 80.7202 15.6707 77.1385 20.089 77.1385H379.911C384.329 77.1385 387.911 80.7202 387.911 85.1385V328.954H12.089V85.1385Z" fill="#5C515C"/>
<path d="M391 326C391 329.314 388.314 332 385 332H343.636V290.369H385C388.314 290.369 391 293.056 391 296.369V326Z" fill="#BCAFB8"/>
<path d="M391 283.354C391 286.668 388.314 289.354 385 289.354H343.636V246.708H385C388.314 246.708 391 249.394 391 252.708V283.354Z" fill="#BCAFB8"/>
<path d="M391 239.692C391 243.006 388.314 245.692 385 245.692H343.636V204.062H385C388.314 204.062 391 206.748 391 210.062V239.692Z" fill="#BCAFB8"/>
<path d="M391 197.046C391 200.36 388.314 203.046 385 203.046H343.636V161.415H385C388.314 161.415 391 164.102 391 167.415V197.046Z" fill="#BCAFB8"/>
<path d="M391 154.4C391 157.714 388.314 160.4 385 160.4H343.636V117.754H385C388.314 117.754 391 120.44 391 123.754V154.4Z" fill="#BCAFB8"/>
<path d="M391 110.738C391 114.052 388.314 116.738 385 116.738H343.636V75.1077H385C388.314 75.1077 391 77.794 391 81.1077V110.738Z" fill="#BCAFB8"/>
<path d="M9 81.1077C9 77.794 11.6863 75.1077 15 75.1077H56.3639V116.738H15C11.6863 116.738 9 114.052 9 110.738V81.1077Z" fill="#BCAFB8"/>
<path d="M9 123.754C9 120.44 11.6863 117.754 15 117.754H56.3639V160.4H15C11.6863 160.4 9 157.714 9 154.4V123.754Z" fill="#BCAFB8"/>
<path d="M9 167.415C9 164.102 11.6863 161.415 15 161.415H56.3639V203.046H15C11.6863 203.046 9 200.36 9 197.046V167.415Z" fill="#BCAFB8"/>
<path d="M9 210.062C9 206.748 11.6863 204.062 15 204.062H56.3639V245.692H15C11.6863 245.692 9 243.006 9 239.692V210.062Z" fill="#BCAFB8"/>
<path d="M9 252.708C9 249.394 11.6863 246.708 15 246.708H56.3639V289.354H15C11.6863 289.354 9 286.668 9 283.354V252.708Z" fill="#BCAFB8"/>
<path d="M9 296.369C9 293.056 11.6863 290.369 15 290.369H56.3639V332H15C11.6863 332 9 329.314 9 326V296.369Z" fill="#BCAFB8"/>
<path d="M56.3639 72C56.3639 69.7909 58.1548 68 60.3639 68H339.636C341.845 68 343.636 69.7909 343.636 72V332H56.3639V72Z" fill="#BCB0B8"/>
<path d="M56.3639 72C56.3639 69.7909 58.1548 68 60.3639 68H339.636C341.845 68 343.636 69.7909 343.636 72V332H56.3639V72Z" fill="url(#paint0_linear_5_122)"/>
<g filter="url(#filter0_i_5_122)">
<path d="M74.8976 241.508C74.8976 237.089 78.4793 233.508 82.8976 233.508H318.132C322.55 233.508 326.132 237.089 326.132 241.508V332H74.8976V241.508Z" fill="#B6AEB8"/>
</g>
<rect x="162.418" y="233.508" width="75.1644" height="73.1077" fill="url(#paint1_linear_5_122)"/>
<rect x="162.418" y="233.508" width="75.1644" height="73.1077" fill="url(#paint2_linear_5_122)" fill-opacity="0.2"/>
<path d="M74.8976 68H326.132V194.031C326.132 198.449 322.55 202.031 318.132 202.031H82.8976C78.4793 202.031 74.8976 198.449 74.8976 194.031V68Z" fill="#000408"/>
<rect x="99" y="75" width="139" height="95" rx="4" fill="#5184C7"/>
<path d="M263.84 190.22C263.013 190.22 262.233 190.1 261.5 189.86C260.78 189.607 260.18 189.227 259.7 188.72L260.8 186.86L260.88 186.7L261.06 186.8C261.087 186.893 261.12 186.993 261.16 187.1C261.213 187.207 261.32 187.333 261.48 187.48C261.813 187.733 262.18 187.94 262.58 188.1C262.993 188.247 263.44 188.327 263.92 188.34C264.227 188.34 264.507 188.307 264.76 188.24C265.027 188.173 265.253 188.073 265.44 187.94C265.627 187.807 265.773 187.64 265.88 187.44C265.987 187.227 266.04 186.987 266.04 186.72C266.04 186.56 266.02 186.407 265.98 186.26C265.94 186.113 265.867 185.973 265.76 185.84C265.667 185.693 265.527 185.553 265.34 185.42C265.153 185.273 264.92 185.12 264.64 184.96C264.36 184.787 264.007 184.607 263.58 184.42C262.727 184.047 262.047 183.667 261.54 183.28C261.047 182.893 260.693 182.48 260.48 182.04C260.267 181.6 260.16 181.1 260.16 180.54C260.16 179.927 260.327 179.38 260.66 178.9C261.007 178.42 261.48 178.04 262.08 177.76C262.68 177.48 263.367 177.34 264.14 177.34C264.66 177.34 265.147 177.4 265.6 177.52C266.053 177.64 266.473 177.82 266.86 178.06C267.247 178.287 267.6 178.58 267.92 178.94L266.6 180.46L266.48 180.6L266.32 180.48C266.307 180.373 266.28 180.273 266.24 180.18C266.213 180.073 266.127 179.94 265.98 179.78C265.727 179.54 265.453 179.38 265.16 179.3C264.88 179.22 264.547 179.18 264.16 179.18C263.88 179.18 263.633 179.213 263.42 179.28C263.207 179.347 263.02 179.44 262.86 179.56C262.713 179.68 262.593 179.82 262.5 179.98C262.42 180.127 262.38 180.28 262.38 180.44C262.38 180.6 262.4 180.753 262.44 180.9C262.48 181.033 262.547 181.167 262.64 181.3C262.747 181.433 262.893 181.573 263.08 181.72C263.28 181.853 263.533 182 263.84 182.16C264.147 182.32 264.527 182.5 264.98 182.7C265.607 182.993 266.133 183.28 266.56 183.56C266.987 183.827 267.32 184.113 267.56 184.42C267.813 184.713 267.993 185.04 268.1 185.4C268.207 185.747 268.26 186.14 268.26 186.58C268.26 187.18 268.107 187.76 267.8 188.32C267.493 188.88 267.013 189.34 266.36 189.7C265.707 190.047 264.867 190.22 263.84 190.22ZM274 190.26C272.627 190.26 271.567 189.853 270.82 189.04C270.087 188.213 269.72 187.08 269.72 185.64V177.54H271.96H272.14V177.72C272.073 177.8 272.027 177.887 272 177.98C271.987 178.073 271.98 178.233 271.98 178.46V185.66C271.98 186.513 272.127 187.187 272.42 187.68C272.727 188.173 273.26 188.42 274.02 188.42C274.793 188.42 275.333 188.173 275.64 187.68C275.947 187.173 276.1 186.48 276.1 185.6V177.54H278.3V185.58C278.3 186.647 278.12 187.527 277.76 188.22C277.4 188.913 276.893 189.427 276.24 189.76C275.6 190.093 274.853 190.26 274 190.26ZM279.96 190V177.54H284.2C285.173 177.54 285.967 177.707 286.58 178.04C287.207 178.373 287.667 178.813 287.96 179.36C288.267 179.907 288.42 180.52 288.42 181.2C288.42 181.693 288.333 182.16 288.16 182.6C288 183.027 287.747 183.407 287.4 183.74C287.067 184.06 286.64 184.313 286.12 184.5C285.613 184.687 285.007 184.78 284.3 184.78H282.26V190H279.96ZM282.26 182.9H284.14C284.567 182.9 284.927 182.827 285.22 182.68C285.513 182.533 285.733 182.333 285.88 182.08C286.027 181.827 286.1 181.533 286.1 181.2C286.1 180.867 286.027 180.573 285.88 180.32C285.733 180.067 285.513 179.867 285.22 179.72C284.94 179.573 284.587 179.5 284.16 179.5H282.26V182.9ZM290.02 190V177.54H298.14V179.38H292.22V182.58H297.08V184.44H292.22V188.16H298.08V190H290.02ZM299.9 190V177.54H303.84C304.867 177.54 305.7 177.693 306.34 178C306.993 178.293 307.473 178.72 307.78 179.28C308.087 179.827 308.24 180.467 308.24 181.2C308.24 181.653 308.14 182.107 307.94 182.56C307.753 183.013 307.487 183.42 307.14 183.78C306.793 184.14 306.38 184.413 305.9 184.6L308.58 190H306.2L303.68 184.82H302.18V190H299.9ZM302.18 182.94H304C304.64 182.94 305.12 182.793 305.44 182.5C305.76 182.193 305.92 181.78 305.92 181.26C305.92 180.927 305.847 180.633 305.7 180.38C305.567 180.113 305.353 179.9 305.06 179.74C304.78 179.58 304.427 179.5 304 179.5H302.18V182.94Z" fill="#E0271D"/>
<rect x="247" y="70" width="73" height="10" fill="#E0271D"/>
<rect x="247" y="190" width="73" height="10" fill="#E0271D"/>
<circle cx="170" cy="111" r="30" fill="#DDEE60"/>
<g filter="url(#filter1_d_5_122)">
<ellipse cx="148.5" cy="139" rx="22.5" ry="20" fill="#ECECFA"/>
<ellipse cx="148.5" cy="139" rx="22.5" ry="20" fill="#ECECFA"/>
<ellipse cx="170.5" cy="131" rx="22.5" ry="20" fill="#ECECFA"/>
<ellipse cx="170.5" cy="131" rx="22.5" ry="20" fill="#ECECFA"/>
<ellipse cx="189.5" cy="139" rx="22.5" ry="20" fill="#ECECFA"/>
<ellipse cx="189.5" cy="139" rx="22.5" ry="20" fill="#ECECFA"/>
</g>
<defs>
<filter id="filter0_i_5_122" x="74.8976" y="233.508" width="251.234" height="102.492" filterUnits="userSpaceOnUse" color-interpolation-filters="sRGB">
<feFlood flood-opacity="0" result="BackgroundImageFix"/>
<feBlend mode="normal" in="SourceGraphic" in2="BackgroundImageFix" result="shape"/>
<feColorMatrix in="SourceAlpha" type="matrix" values="0 0 0 0 0 0 0 0 0 0 0 0 0 0 0 0 0 0 127 0" result="hardAlpha"/>
<feOffset dy="4"/>
<feGaussianBlur stdDeviation="2"/>
<feComposite in2="hardAlpha" operator="arithmetic" k2="-1" k3="1"/>
<feColorMatrix type="matrix" values="0 0 0 0 0 0 0 0 0 0 0 0 0 0 0 0 0 0 0.25 0"/>
<feBlend mode="normal" in2="shape" result="effect1_innerShadow_5_122"/>
</filter>
<filter id="filter1_d_5_122" x="122" y="105" width="94" height="56" filterUnits="userSpaceOnUse" color-interpolation-filters="sRGB">
<feFlood flood-opacity="0" result="BackgroundImageFix"/>
<feColorMatrix in="SourceAlpha" type="matrix" values="0 0 0 0 0 0 0 0 0 0 0 0 0 0 0 0 0 0 127 0" result="hardAlpha"/>
<feOffset dy="-2"/>
<feGaussianBlur stdDeviation="2"/>
<feComposite in2="hardAlpha" operator="out"/>
<feColorMatrix type="matrix" values="0 0 0 0 0 0 0 0 0 0 0 0 0 0 0 0 0 0 0.25 0"/>
<feBlend mode="normal" in2="BackgroundImageFix" result="effect1_dropShadow_5_122"/>
<feBlend mode="normal" in="SourceGraphic" in2="effect1_dropShadow_5_122" result="shape"/>
</filter>
<linearGradient id="paint0_linear_5_122" x1="56.3639" y1="200" x2="343.636" y2="200" gradientUnits="userSpaceOnUse">
<stop stop-color="#565054" stop-opacity="0.16"/>
<stop offset="0.03" stop-color="#BCB0B8"/>
<stop offset="0.97" stop-color="#BCB0B8"/>
<stop offset="1" stop-color="#565054" stop-opacity="0.16"/>
</linearGradient>
<linearGradient id="paint1_linear_5_122" x1="200" y1="233.508" x2="200" y2="306.615" gradientUnits="userSpaceOnUse">
<stop stop-opacity="0"/>
<stop offset="0.095" stop-opacity="0"/>
<stop offset="0.0951" stop-color="#B6AEB8"/>
<stop offset="0.425" stop-color="#B6AEB8"/>
<stop offset="0.625" stop-color="#514E52" stop-opacity="0.37"/>
<stop offset="0.855" stop-color="#B6AEB8"/>
</linearGradient>
<linearGradient id="paint2_linear_5_122" x1="237.582" y1="270.062" x2="162.418" y2="270.062" gradientUnits="userSpaceOnUse">
<stop stop-opacity="0.5"/>
<stop offset="0.055" stop-opacity="0"/>
<stop offset="0.95" stop-opacity="0"/>
<stop offset="1" stop-opacity="0.5"/>
</linearGradient>
</defs>
</svg>
